<svg width="25" height="26" viewBox="0 0 25 26" fill="none" xmlns="http://www.w3.org/2000/svg">
<g clip-path="url(#clip0_13_108)">
<path d="M4.62984 1.43856C2.91206 2.55262 2.57461 6.03499 3.22315 8.87323C3.72822 11.0835 4.80205 14.0484 6.61279 16.8403C8.31621 19.4667 10.6927 21.8218 12.5048 23.1844C14.8318 24.934 18.1491 26.0461 19.8668 24.9321C20.7354 24.3687 22.0259 22.8296 22.0848 22.5535C22.0848 22.5535 21.3281 21.3867 21.162 21.1306L18.6243 17.2178C18.4357 16.927 17.2531 17.1928 16.6523 17.533C15.8419 17.9922 15.0956 19.2243 15.0956 19.2243C14.5399 19.5453 14.0745 19.2254 13.1021 18.7779C11.9069 18.228 10.5631 16.5194 9.49365 14.9719C8.51685 13.3643 7.50479 11.4405 7.49014 10.125C7.47808 9.05457 7.37583 8.4992 7.89561 8.12274C7.89561 8.12274 9.3249 7.94373 10.0747 7.3911C10.6304 6.98133 11.3553 6.00995 11.1667 5.71912L8.62905 1.80633C8.46299 1.55028 7.70625 0.38348 7.70625 0.38348C7.43003 0.324643 5.49844 0.875228 4.62984 1.43856Z" fill="#F46600"/>
</g>
<defs>
<clipPath id="clip0_13_108">
<rect width="25" height="25" fill="white" transform="translate(0 0.37915)"/>
</clipPath>
</defs>
</svg>
