<svg width="1635" height="626" viewBox="0 0 1635 626" fill="none" xmlns="http://www.w3.org/2000/svg">
<g filter="url(#filter0_f_34_133)">
<path d="M498.763 348.552C504.656 305.947 588.152 262.547 708.603 231.127L708.637 234.44C620.922 258.982 562.143 289.526 558.079 319.036C553.643 350.979 614.312 374.692 712.635 386.006C714.041 386.135 715.345 386.334 716.704 386.525C733.446 388.369 751.359 389.878 770.104 390.991C787.341 392.044 805.309 392.771 823.998 393.117C875.958 394.14 933.156 392.637 993.543 388.241C1108.98 379.776 1215.61 362.13 1297.47 340.037C1317.33 334.683 1335.66 329.054 1352.4 323.21C1404.74 304.986 1440.66 284.764 1452.85 264.699C1454.11 269.164 1454.49 273.699 1453.84 278.438C1450.17 304.96 1416.44 331.837 1361.79 356.033C1345.63 363.177 1327.54 370.099 1307.97 376.737C1217.79 407.221 1093.77 431.192 958.621 441.116C891.27 446.074 827.72 447 770.564 444.569C750.578 443.691 731.376 442.479 713.105 440.801C578.638 428.505 492.337 394.773 498.716 348.614L498.763 348.552Z" fill="#09AAD7" fill-opacity="0.32"/>
</g>
<g filter="url(#filter1_f_34_133)">
<path d="M180.351 313.682C186.276 266.527 278.047 217.374 410.868 180.924L410.952 184.584C314.252 212.963 249.648 247.556 245.563 280.217C241.101 315.57 308.553 340.893 417.489 351.974C419.046 352.096 420.492 352.297 421.998 352.489C440.546 354.284 460.386 355.693 481.139 356.651C500.225 357.566 520.113 358.11 540.794 358.223C598.294 358.603 661.554 356.117 728.302 350.39C855.901 339.372 973.621 318.338 1063.87 292.749C1085.77 286.548 1105.97 280.064 1124.41 273.366C1182.07 252.477 1221.52 229.617 1234.73 207.274C1236.18 212.189 1236.66 217.194 1236.01 222.439C1232.33 251.793 1195.38 281.973 1135.26 309.493C1117.48 317.618 1097.57 325.526 1076.01 333.143C976.658 368.122 839.782 396.395 690.404 409.309C615.959 415.758 545.664 417.698 482.396 415.838C460.272 415.156 439.011 414.094 418.773 412.503C269.836 400.86 173.887 364.839 180.3 313.751L180.351 313.682Z" fill="#09AAD7" fill-opacity="0.32"/>
</g>
<defs>
<filter id="filter0_f_34_133" x="318.385" y="51.1267" width="1315.76" height="574.732" filterUnits="userSpaceOnUse" color-interpolation-filters="sRGB">
<feFlood flood-opacity="0" result="BackgroundImageFix"/>
<feBlend mode="normal" in="SourceGraphic" in2="BackgroundImageFix" result="shape"/>
<feGaussianBlur stdDeviation="90" result="effect1_foregroundBlur_34_133"/>
</filter>
<filter id="filter1_f_34_133" x="-0.00292969" y="0.923828" width="1416.3" height="595.587" filterUnits="userSpaceOnUse" color-interpolation-filters="sRGB">
<feFlood flood-opacity="0" result="BackgroundImageFix"/>
<feBlend mode="normal" in="SourceGraphic" in2="BackgroundImageFix" result="shape"/>
<feGaussianBlur stdDeviation="90" result="effect1_foregroundBlur_34_133"/>
</filter>
</defs>
</svg>
