<svg width="1788" height="793" viewBox="0 0 1788 793" fill="none" xmlns="http://www.w3.org/2000/svg">
<g filter="url(#filter0_f_34_128)">
<path d="M1600.91 372.357C1583.22 310.866 1451.26 264.687 1267.51 244L1268.17 248.887C1402.32 266.397 1495.22 298.894 1507.45 341.49C1520.74 387.588 1436.58 435.396 1294.43 472.942C1292.39 473.431 1290.51 474.001 1288.55 474.571C1264.33 480.842 1238.32 486.869 1210.99 492.489C1185.88 497.701 1159.61 502.588 1132.21 507.067C1056.04 519.61 971.628 529.546 881.916 535.899C710.404 547.953 549.902 544.613 424.876 529.465C394.538 525.8 366.401 521.402 340.547 516.352C259.725 500.633 202.636 478.48 180.453 451.522C179.556 458.363 179.964 465.123 181.921 471.965C192.931 510.244 248.226 542.659 333.697 566.685C358.979 573.771 387.034 580.123 417.21 585.743C556.263 611.48 743.679 620.439 944.47 606.349C1044.54 599.344 1138.17 587.209 1221.68 571.49C1250.88 565.952 1278.85 560.088 1305.35 553.735C1500.44 507.067 1620.16 439.061 1601 372.439L1600.91 372.357Z" fill="#09AAD7" fill-opacity="0.32"/>
</g>
<g filter="url(#filter1_f_34_128)">
<path d="M1605.91 308.357C1588.22 246.866 1456.26 200.687 1272.51 180L1273.17 184.887C1407.32 202.397 1500.22 234.894 1512.45 277.49C1525.74 323.588 1441.58 371.396 1299.43 408.942C1297.39 409.431 1295.51 410.001 1293.55 410.571C1269.33 416.842 1243.32 422.869 1215.99 428.489C1190.88 433.701 1164.61 438.588 1137.21 443.067C1061.04 455.61 976.628 465.546 886.916 471.899C715.404 483.953 554.902 480.613 429.876 465.465C399.538 461.8 371.401 457.402 345.547 452.352C264.725 436.633 207.636 414.48 185.453 387.522C184.556 394.363 184.964 401.123 186.921 407.965C197.931 446.244 253.226 478.659 338.697 502.685C363.979 509.771 392.034 516.123 422.21 521.743C561.263 547.48 748.679 556.439 949.47 542.349C1049.54 535.344 1143.17 523.209 1226.68 507.49C1255.88 501.952 1283.85 496.088 1310.35 489.735C1505.44 443.067 1625.16 375.061 1606 308.439L1605.91 308.357Z" fill="#09AAD7" fill-opacity="0.32"/>
</g>
<defs>
<filter id="filter0_f_34_128" x="0" y="64" width="1783" height="729" filterUnits="userSpaceOnUse" color-interpolation-filters="sRGB">
<feFlood flood-opacity="0" result="BackgroundImageFix"/>
<feBlend mode="normal" in="SourceGraphic" in2="BackgroundImageFix" result="shape"/>
<feGaussianBlur stdDeviation="90" result="effect1_foregroundBlur_34_128"/>
</filter>
<filter id="filter1_f_34_128" x="5" y="0" width="1783" height="729" filterUnits="userSpaceOnUse" color-interpolation-filters="sRGB">
<feFlood flood-opacity="0" result="BackgroundImageFix"/>
<feBlend mode="normal" in="SourceGraphic" in2="BackgroundImageFix" result="shape"/>
<feGaussianBlur stdDeviation="90" result="effect1_foregroundBlur_34_128"/>
</filter>
</defs>
</svg>
