<svg width="1366" height="729" viewBox="0 0 1366 729" fill="none" xmlns="http://www.w3.org/2000/svg">
<g filter="url(#filter0_f_13_419)">
<path d="M-24.9136 308.357C-7.21594 246.866 124.742 200.687 308.487 180L307.835 184.887C173.675 202.397 80.783 234.894 68.5496 277.49C55.256 323.588 139.422 371.396 281.574 408.942C283.613 409.431 285.488 410.001 287.446 410.571C311.668 416.842 337.684 422.869 365.005 428.489C390.125 433.701 416.386 438.588 443.789 443.067C519.962 455.61 604.372 465.546 694.084 471.899C865.596 483.953 1026.1 480.613 1151.12 465.465C1181.46 461.8 1209.6 457.402 1235.45 452.352C1316.27 436.633 1373.36 414.48 1395.55 387.522C1396.44 394.363 1396.04 401.123 1394.08 407.965C1383.07 446.244 1327.77 478.659 1242.3 502.685C1217.02 509.771 1188.97 516.123 1158.79 521.743C1019.74 547.48 832.321 556.439 631.53 542.349C531.461 535.344 437.835 523.209 354.322 507.49C325.125 501.952 297.151 496.088 270.645 489.735C75.5634 443.067 -44.1608 375.061 -24.9951 308.439L-24.9136 308.357Z" fill="#09AAD7" fill-opacity="0.32"/>
</g>
<defs>
<filter id="filter0_f_13_419" x="-207" y="0" width="1783" height="729" filterUnits="userSpaceOnUse" color-interpolation-filters="sRGB">
<feFlood flood-opacity="0" result="BackgroundImageFix"/>
<feBlend mode="normal" in="SourceGraphic" in2="BackgroundImageFix" result="shape"/>
<feGaussianBlur stdDeviation="90" result="effect1_foregroundBlur_13_419"/>
</filter>
</defs>
</svg>
