<svg width="225" height="35" viewBox="0 0 225 35" fill="none" xmlns="http://www.w3.org/2000/svg">
<path d="M32.3138 0.0995789H13.512C13.068 0.0995789 12.707 0.412987 12.707 0.798394V17.9765H15.5073V2.91601C15.5073 2.58143 15.8195 2.30614 16.2098 2.30614H29.7574C30.1428 2.30614 30.4599 2.57719 30.4599 2.91601V25.2061C30.4599 25.6677 30.0257 26.0447 29.494 26.0447H24.2545V32.7533H32.1674C32.7723 32.7533 33.2602 32.3255 33.2602 31.8046V0.798394C33.2602 0.412987 32.8992 0.0995789 32.4552 0.0995789H32.3138Z" fill="#008CB3"/>
<path d="M14.3123 14.8255L4.13086 21.6739V23.872L14.3123 18.3196V14.8255Z" fill="#008CB3"/>
<path d="M4.13086 30.462V32.6262L14.3123 32.7533V29.0602L4.13086 30.462Z" fill="#008CB3"/>
<path d="M14.3123 25.6381V21.9619L4.13086 26.1463V28.3952L14.3123 25.6381Z" fill="#008CB3"/>
<path d="M24.2549 23.8252V21.6822L14.3271 14.8169L14.3223 18.3152L24.2549 23.8252Z" fill="#B5B5B6"/>
<path d="M14.3125 32.7533H24.2598V30.6441L14.3125 29.0602V32.7533Z" fill="#B5B5B6"/>
<path d="M14.3125 21.9576V25.638L24.2549 28.2596V26.0446L14.3125 21.9576Z" fill="#B5B5B6"/>
<path d="M43.6117 27.9928C43.0702 26.3538 39.021 25.1213 33.3766 24.5665L33.3961 24.6978C37.5136 25.1637 40.3626 26.0319 40.7383 27.1669C41.1432 28.3951 38.5625 29.6742 34.2011 30.6737C34.1376 30.6864 34.084 30.7034 34.0206 30.7161C33.2741 30.8855 32.4789 31.0422 31.6398 31.1946C30.869 31.3344 30.0641 31.4615 29.2201 31.5843C26.8833 31.9189 24.2928 32.1857 21.5365 32.3551C16.2725 32.677 11.3452 32.588 7.51074 32.1857C6.57894 32.0883 5.71545 31.9697 4.92513 31.8342C2.44197 31.4149 0.695459 30.8262 0.0124673 30.1062C-0.0119252 30.2883 -0.00216823 30.4704 0.0563739 30.6525C0.392991 31.6732 2.09071 32.5372 4.71535 33.181C5.49103 33.3716 6.34965 33.541 7.27657 33.6892C11.5453 34.3753 17.297 34.6167 23.4586 34.2398C26.532 34.0534 29.4055 33.7316 31.9667 33.308C32.8595 33.1598 33.723 33.0031 34.5328 32.8337C40.5187 31.5885 44.1923 29.7758 43.6068 27.997L43.6117 27.9928Z" fill="#008CB3"/>
<path d="M211.878 10.7978H214.453V12.9154C213.941 14.33 213.395 15.5539 212.809 16.5958C214.127 18.1417 215.166 19.3784 215.937 20.2974L214.293 21.8136C213.375 20.7421 212.556 19.6409 211.824 18.5101V27.5227H209.385V20.1407C208.872 20.9581 208.033 21.6484 206.863 22.216L206.287 19.7384C208.902 18.0273 210.721 15.753 211.746 12.9111H206.867V10.7935H209.443V7.44769H211.883V10.7935L211.878 10.7978ZM221.298 24.6724H225.001V26.8154H214.029V24.6724H218.8V14.0335H215.127V11.9582H218.8V7.6298H221.293V11.9582H224.693V14.0335H221.293V24.6724H221.298Z" fill="#605F5F"/>
<path d="M60.6824 7.66373C60.4726 8.48536 60.2384 9.33665 59.975 10.2218H69.4978V13.3728C69.288 15.4227 68.7709 17.2311 67.9367 18.7982C67.1074 20.3652 66.1024 21.6527 64.9315 22.6607C63.7607 23.6687 62.5606 24.4819 61.3312 25.096C60.1018 25.7101 58.9505 26.2014 57.8723 26.5741C56.7942 26.9425 55.8429 27.2178 55.0087 27.3999V24.6428C56.1795 24.3294 57.3211 23.9398 58.4382 23.4739C59.5505 23.008 60.7116 22.3177 61.9117 21.4071C63.1119 20.4965 64.1217 19.4038 64.9462 18.1205C65.7658 16.8415 66.2634 15.0712 66.4341 12.8053H58.7553C57.5455 14.4952 56.4478 15.7615 55.4526 16.6086C54.4623 17.4514 53.6134 18.0739 52.9158 18.4678V15.0712C53.5597 14.5629 54.1939 13.9319 54.8281 13.178C55.4624 12.4241 56.0185 11.5771 56.5015 10.6453C56.9844 9.70935 57.3357 8.7183 57.565 7.66796H60.6824V7.66373Z" fill="#605F5F"/>
<path d="M74.2068 17.0657V14.4823H91.2133C91.2133 16.2356 90.8815 17.862 90.2229 19.3528C89.5595 20.8436 88.6228 22.0676 87.4032 23.0205C86.1835 23.9734 84.9395 24.7061 83.6613 25.2228C82.388 25.7395 81.1733 26.1122 80.022 26.3409C78.8706 26.5696 77.8022 26.7517 76.8217 26.883V24.1047C77.69 24.0242 78.6023 23.8718 79.5585 23.6515C80.5147 23.4313 81.5245 23.0925 82.5929 22.6436C83.6613 22.1946 84.7005 21.5085 85.7103 20.5895C86.7202 19.6704 87.3983 18.4973 87.7349 17.07H74.2165L74.2068 17.0657ZM74.9971 11.1322V8.5995H89.9595V11.1322H74.9971Z" fill="#605F5F"/>
<path d="M96.199 20.4119V10.9631H102.917V7.76551H105.922V10.9631H112.864V14.309C112.825 16.3588 112.483 18.163 111.844 19.7216C111.2 21.2802 110.366 22.4957 109.337 23.3639C108.307 24.2321 107.19 24.9436 105.99 25.49C104.79 26.0406 103.683 26.4514 102.658 26.7182C101.639 26.9893 100.721 27.1714 99.9066 27.273V24.6895C101.004 24.5244 102.082 24.2533 103.151 23.8764C104.219 23.4994 105.302 22.9234 106.395 22.1526C107.493 21.3818 108.332 20.3526 108.917 19.0651C109.503 17.7776 109.805 16.164 109.825 14.2285V13.517H99.1944V20.4077H96.1892L96.199 20.4119Z" fill="#605F5F"/>
<path d="M118.615 27.2007V7.76099H121.791V14.4527H131.665V17.1336H121.791V27.1965H118.615V27.2007ZM125.162 11.3567V7.81181H127.118V11.3567H125.162ZM128.221 11.3567V7.81181H130.177V11.3567H128.221Z" fill="#605F5F"/>
<path d="M173.83 24.8969V22.4447H178.767V20.6151H173.83V18.3831H178.493V7.89669H166.717V18.3831H171.415V20.6151H166.717V22.4447H171.4H171.42V24.8969H165.717V26.8579H179.069V24.8969H173.83ZM173.83 9.79408H176.108V12.2463H173.83V9.79408ZM173.83 13.9658H176.108V16.5535H173.83V13.9658ZM171.415 16.5535H169.058V13.9658H171.415V16.5535ZM171.415 12.2505H169.058V9.79831H171.415V12.2505Z" fill="#605F5F"/>
<path d="M160.013 10.7979H161.906V15.2153H160.204V17.2694H161.906V22.9573C160.989 23.2834 160.316 23.4909 159.877 23.5799L160.15 25.634C162.048 25.1003 164.228 24.5413 165.697 23.9568V21.7672C165.36 21.9535 164.555 22.1187 164.345 22.2458V17.2694H165.697V15.2153H164.345V10.7979H165.697V8.68031H160.013V10.7979Z" fill="#605F5F"/>
<path d="M146.861 10.3529V8.39203H142.275C142.441 7.85839 142.578 7.48569 142.685 7.27816L140.353 6.80805C139.729 8.4598 138.69 9.98448 137.226 11.3821L138.899 12.8983C139.797 12.1402 140.524 11.2932 141.095 10.3529H141.563C141.836 11.2169 142.129 12.047 142.441 12.8517L144.773 12.2037C144.388 11.1492 144.188 10.5308 144.168 10.3529H146.866H146.861Z" fill="#605F5F"/>
<path d="M155.833 10.3529V8.392H151.248C151.413 7.85836 151.55 7.48566 151.657 7.27813L149.325 6.80802C148.701 8.45977 147.662 9.98445 146.886 10.6748L148.56 12.191C148.769 12.1402 149.501 11.2931 150.067 10.3529H150.535C150.809 11.2169 151.101 12.047 151.413 12.8517L153.745 12.2037C153.36 11.1491 153.16 10.5308 153.14 10.3529H155.838H155.833Z" fill="#605F5F"/>
<path d="M142.958 20.6575H152.613V15.8844H140.49V27.5271H142.958V26.6334H151.266V27.5271H153.759V21.6824H142.953V20.6575H142.958ZM142.958 17.714H150.115V18.8745H142.958V17.714ZM151.266 23.5163V24.8546H142.958V23.5163H151.266Z" fill="#605F5F"/>
<path d="M147.843 11.7889H145.345V13.1399H137.886V17.714H140.325V14.9949H152.751V17.714H155.19V13.1399H147.843V11.7889Z" fill="#605F5F"/>
<path d="M196.124 21.2377C196.637 22.144 197.046 22.9911 197.359 23.7788C195.002 24.1515 192.744 24.4353 190.582 24.6259C191.221 23.0038 191.787 21.4071 192.285 19.8316H201.281V17.8241H184.552V19.8316H189.655C189.143 21.4071 188.524 23.0673 187.792 24.808C187.299 24.8503 186.377 24.9054 185.021 24.9647L185.157 26.9722C189.397 26.824 193.807 26.3793 198.378 25.6339C198.432 25.888 198.568 26.248 198.788 26.7139C199.008 27.184 199.193 27.5143 199.339 27.7049L201.476 26.7901C200.378 24.4988 199.31 22.3431 198.266 20.3229L196.124 21.2377Z" fill="#605F5F"/>
<path d="M192.914 8.96796C194.402 10.7171 200.213 15.2446 201.193 15.7486L202.237 13.7622C199.256 11.903 196.607 9.78536 194.285 7.40515H191.544C189.221 9.79806 186.572 11.9199 183.592 13.7622L184.636 15.7486C185.606 15.2488 191.431 10.7171 192.919 8.96796H192.914Z" fill="#605F5F"/>
<path d="M198.051 13.9613H187.797V16.0365H198.051V13.9613Z" fill="#605F5F"/>
</svg>
