<svg width="252" height="44" viewBox="0 0 252 44" fill="none" xmlns="http://www.w3.org/2000/svg">
<path d="M36.2094 0.146362H15.1703C14.6735 0.146362 14.2695 0.543366 14.2695 1.03157V22.7917H17.403V3.71403C17.403 3.2902 17.7524 2.94148 18.1891 2.94148H33.3489C33.7801 2.94148 34.135 3.28484 34.135 3.71403V31.9496C34.135 32.5344 33.6491 33.0118 33.0541 33.0118H27.1911V41.5099H36.0456C36.7226 41.5099 37.2685 40.968 37.2685 40.3081V1.03157C37.2685 0.543366 36.8645 0.146362 36.3677 0.146362H36.2094Z" fill="#008CB3"/>
<path d="M16.0663 18.8004L4.67334 27.4755V30.2599L16.0663 23.2265V18.8004Z" fill="#008CB3"/>
<path d="M4.67334 38.6076V41.349L16.0663 41.51V36.8318L4.67334 38.6076Z" fill="#008CB3"/>
<path d="M16.0663 32.4968V27.84L4.67334 33.1406V35.9893L16.0663 32.4968Z" fill="#008CB3"/>
<path d="M27.1932 30.2003V27.4857L16.0841 18.7892L16.0786 23.2206L27.1932 30.2003Z" fill="#B5B5B6"/>
<path d="M16.0659 41.51H27.1969V38.8383L16.0659 36.8318V41.51Z" fill="#B5B5B6"/>
<path d="M16.0659 27.8352V32.4973L27.1914 35.8182V33.0123L16.0659 27.8352Z" fill="#B5B5B6"/>
<path d="M48.8541 35.4797C48.2481 33.4035 43.7171 31.8423 37.401 31.1395L37.4229 31.3058C42.0303 31.8959 45.2184 32.9957 45.6387 34.4335C46.0918 35.9893 43.204 37.6095 38.3236 38.8757C38.2526 38.8918 38.1926 38.9132 38.1216 38.9293C37.2864 39.1439 36.3966 39.3424 35.4576 39.5355C34.5951 39.7126 33.6944 39.8735 32.7499 40.0291C30.1351 40.4529 27.2363 40.7909 24.152 41.0055C18.2617 41.4133 12.748 41.3006 8.45722 40.7909C7.41455 40.6675 6.4483 40.5173 5.56394 40.3457C2.78529 39.8145 0.83095 39.0688 0.0666852 38.1568C0.0393901 38.3875 0.0503081 38.6181 0.115817 38.8488C0.49249 40.1418 2.39223 41.2362 5.3292 42.0517C6.19718 42.2931 7.15797 42.5077 8.19519 42.6955C12.9718 43.5646 19.4081 43.8704 26.3028 43.3929C29.742 43.1569 32.9574 42.7491 35.8234 42.2126C36.8224 42.0249 37.7886 41.8264 38.6948 41.6118C45.3931 40.0345 49.5037 37.7383 48.8486 35.485L48.8541 35.4797Z" fill="#008CB3"/>
<path d="M237.142 13.6984H240.025V16.3808C239.451 18.1727 238.84 19.7232 238.185 21.0429C239.659 23.0011 240.822 24.5677 241.684 25.7319L239.845 27.6525C238.818 26.2952 237.901 24.9003 237.082 23.4679V34.8844H234.353V25.5334C233.78 26.5688 232.841 27.4433 231.53 28.1622L230.886 25.0237C233.812 22.8563 235.848 19.9753 236.995 16.3755H231.536V13.693H234.418V9.45471H237.148V13.693L237.142 13.6984ZM247.684 31.2738H251.827V33.9885H239.55V31.2738H244.889V17.7972H240.778V15.1683H244.889V9.6854H247.678V15.1683H251.483V17.7972H247.678V31.2738H247.684Z" fill="#605F5F"/>
<path d="M67.9564 9.72835C67.7217 10.7691 67.4596 11.8475 67.1649 12.9688H77.8209V16.9603C77.5862 19.5569 77.0075 21.8477 76.074 23.8327C75.146 25.8177 74.0214 27.4487 72.7112 28.7255C71.4011 30.0024 70.0581 31.0324 68.6825 31.8103C67.3068 32.5882 66.0185 33.2106 64.812 33.6827C63.6056 34.1494 62.541 34.4982 61.6076 34.7288V31.2363C62.9177 30.8393 64.1951 30.3457 65.4453 29.7556C66.6899 29.1654 67.9892 28.291 69.3321 27.1375C70.675 25.984 71.805 24.5999 72.7276 22.9743C73.6447 21.3541 74.2015 19.1116 74.3926 16.2414H65.8001C64.4463 18.382 63.218 19.9861 62.1043 21.059C60.9961 22.1267 60.0463 22.9153 59.2656 23.4142V19.1116C59.9862 18.4678 60.6959 17.6684 61.4056 16.7135C62.1152 15.7585 62.7376 14.6855 63.278 13.5052C63.8185 12.3196 64.2115 11.0642 64.4681 9.73371H67.9564V9.72835Z" fill="#605F5F"/>
<path d="M83.0859 21.6385V18.3659H102.116C102.116 20.587 101.745 22.6471 101.008 24.5356C100.266 26.424 99.2174 27.9745 97.8526 29.1816C96.4879 30.3887 95.0958 31.3168 93.6655 31.9713C92.2407 32.6259 90.8814 33.098 89.5931 33.3877C88.3048 33.6774 87.1092 33.9081 86.012 34.0744V30.555C86.9837 30.4531 88.0045 30.2599 89.0745 29.981C90.1445 29.702 91.2745 29.2728 92.47 28.7041C93.6655 28.1354 94.8283 27.2663 95.9583 26.1021C97.0884 24.9379 97.8472 23.4518 98.2238 21.6439H83.0968L83.0859 21.6385ZM83.9703 14.1223V10.914H100.713V14.1223H83.9703Z" fill="#605F5F"/>
<path d="M107.699 25.8768V13.9077H115.216V9.85716H118.579V13.9077H126.347V18.146C126.303 20.7426 125.921 23.028 125.206 25.0023C124.485 26.9766 123.552 28.5163 122.4 29.6161C121.248 30.716 119.998 31.6173 118.655 32.3093C117.312 33.0068 116.073 33.5272 114.927 33.8652C113.786 34.2085 112.759 34.4392 111.848 34.568V31.2954C113.076 31.0861 114.282 30.7428 115.478 30.2653C116.674 29.7878 117.885 29.0582 119.108 28.0818C120.337 27.1054 121.276 25.8017 121.931 24.1708C122.586 22.5398 122.924 20.4958 122.946 18.044V17.1427H111.051V25.8714H107.688L107.699 25.8768Z" fill="#605F5F"/>
<path d="M132.78 34.4763V9.85139H136.334V18.328H147.383V21.7239H136.334V34.471H132.78V34.4763ZM140.106 14.4062V9.91577H142.295V14.4062H140.106ZM143.529 14.4062V9.91577H145.718V14.4062H143.529Z" fill="#605F5F"/>
<path d="M194.568 31.558V28.4517H200.092V26.1341H194.568V23.3068H199.786V10.0232H186.608V23.3068H191.865V26.1341H186.608V28.4517H191.849H191.871V31.558H185.489V34.0419H200.431V31.558H194.568ZM194.568 12.4267H197.117V15.533H194.568V12.4267ZM194.568 17.7111H197.117V20.9891H194.568V17.7111ZM191.865 20.9891H189.229V17.7111H191.865V20.9891ZM191.865 15.5384H189.229V12.4321H191.865V15.5384Z" fill="#605F5F"/>
<path d="M179.107 13.6983H181.225V19.2939H179.32V21.8959H181.225V29.101C180.199 29.5141 179.445 29.777 178.954 29.8896L179.26 32.4916C181.383 31.8156 183.824 31.1075 185.467 30.3671V27.5934C185.09 27.8295 184.189 28.0387 183.955 28.1997V21.8959H185.467V19.2939H183.955V13.6983H185.467V11.0158H179.107V13.6983Z" fill="#605F5F"/>
<path d="M164.388 13.1349V10.6509H159.257C159.442 9.97497 159.595 9.50286 159.715 9.23998L157.106 8.64447C156.407 10.7368 155.244 12.6682 153.606 14.4386L155.479 16.3592C156.483 15.3989 157.297 14.3259 157.935 13.1349H158.46C158.765 14.2293 159.093 15.2809 159.442 16.3002L162.052 15.4794C161.62 14.1435 161.396 13.3602 161.375 13.1349H164.394H164.388Z" fill="#605F5F"/>
<path d="M174.427 13.1351V10.6511H169.296C169.482 9.97512 169.634 9.50301 169.754 9.24013L167.145 8.64462C166.446 10.7369 165.284 12.6683 164.416 13.5428L166.288 15.4634C166.523 15.3991 167.342 14.3261 167.975 13.1351H168.499C168.805 14.2295 169.132 15.281 169.482 16.3004L172.091 15.4795C171.66 14.1437 171.436 13.3604 171.414 13.1351H174.433H174.427Z" fill="#605F5F"/>
<path d="M160.023 26.1883H170.826V20.142H157.261V34.8902H160.023V33.7582H169.32V34.8902H172.109V27.4866H160.018V26.1883H160.023ZM160.023 22.4597H168.031V23.9297H160.023V22.4597ZM169.32 29.8096V31.5049H160.023V29.8096H169.32Z" fill="#605F5F"/>
<path d="M165.486 14.9537H162.691V16.6651H154.344V22.4593H157.073V19.015H170.977V22.4593H173.707V16.6651H165.486V14.9537Z" fill="#605F5F"/>
<path d="M219.514 26.9226C220.087 28.0707 220.546 29.1437 220.895 30.1415C218.259 30.6136 215.731 30.9731 213.313 31.2145C214.028 29.1598 214.661 27.1372 215.218 25.1414H225.284V22.5985H206.565V25.1414H212.276C211.702 27.1372 211.009 29.2402 210.19 31.4452C209.639 31.4989 208.607 31.5686 207.089 31.6437L207.242 34.1867C211.986 33.9989 216.921 33.4356 222.036 32.4914C222.096 32.8133 222.249 33.2693 222.495 33.8594C222.741 34.4549 222.948 34.8734 223.112 35.1148L225.503 33.956C224.275 31.0536 223.079 28.3228 221.911 25.7638L219.514 26.9226Z" fill="#605F5F"/>
<path d="M215.923 11.3807C217.588 13.5964 224.09 19.3315 225.187 19.9699L226.356 17.4538C223.02 15.0986 220.056 12.4161 217.457 9.40106H214.389C211.791 12.4322 208.827 15.1201 205.491 17.4538L206.659 19.9699C207.746 19.3369 214.264 13.5964 215.929 11.3807H215.923Z" fill="#605F5F"/>
<path d="M221.674 17.7054H210.199V20.3342H221.674V17.7054Z" fill="#605F5F"/>
</svg>
