<svg width="225" height="40" viewBox="0 0 225 40" fill="none" xmlns="http://www.w3.org/2000/svg">
<path d="M32.3138 0.62114H13.512C13.068 0.62114 12.707 0.975925 12.707 1.41222V20.8583H15.5073V3.80941C15.5073 3.43066 15.8195 3.11902 16.2098 3.11902H29.7574C30.1428 3.11902 30.4599 3.42586 30.4599 3.80941V29.0423C30.4599 29.5649 30.0257 29.9916 29.494 29.9916H24.2545V37.5859H32.1674C32.7723 37.5859 33.2602 37.1017 33.2602 36.512V1.41222C33.2602 0.975925 32.8992 0.62114 32.4552 0.62114H32.3138Z" fill="#008CB3"/>
<path d="M14.3123 17.2913L4.13086 25.0438V27.5321L14.3123 21.2467V17.2913Z" fill="#008CB3"/>
<path d="M4.13086 34.9923V37.4422L14.3123 37.586V33.4053L4.13086 34.9923Z" fill="#008CB3"/>
<path d="M14.3123 29.5314V25.3699L4.13086 30.1068V32.6526L14.3123 29.5314Z" fill="#008CB3"/>
<path d="M24.2549 27.4792V25.0532L14.3271 17.2815L14.3223 21.2417L24.2549 27.4792Z" fill="#B5B5B6"/>
<path d="M14.3125 37.586H24.2598V35.1984L14.3125 33.4053V37.586Z" fill="#B5B5B6"/>
<path d="M14.3125 25.365V29.5314L24.2549 32.4991V29.9916L14.3125 25.365Z" fill="#B5B5B6"/>
<path d="M43.6117 32.197C43.0702 30.3416 39.021 28.9464 33.3766 28.3184L33.3961 28.467C37.5136 28.9944 40.3626 29.9772 40.7383 31.2621C41.1432 32.6525 38.5625 34.1004 34.2011 35.2319C34.1376 35.2463 34.084 35.2654 34.0206 35.2798C33.2742 35.4716 32.479 35.649 31.6398 35.8216C30.869 35.9798 30.0641 36.1236 29.2201 36.2627C26.8833 36.6414 24.2928 36.9435 21.5365 37.1353C16.2725 37.4996 11.3452 37.3989 7.51074 36.9435C6.57894 36.8332 5.71545 36.699 4.92513 36.5455C2.44197 36.0709 0.695459 35.4045 0.0124673 34.5894C-0.0119252 34.7956 -0.00216823 35.0017 0.0563739 35.2079C0.392991 36.3634 2.09071 37.3414 4.71535 38.0702C5.49103 38.2859 6.34965 38.4777 7.27657 38.6455C11.5453 39.4222 17.297 39.6955 23.4586 39.2688C26.532 39.0578 29.4055 38.6934 31.9667 38.214C32.8595 38.0462 33.723 37.8688 34.5328 37.677C40.5187 36.2675 44.1923 34.2155 43.6068 32.2018L43.6117 32.197Z" fill="#008CB3"/>
<path d="M211.878 12.7318H214.453V15.129C213.941 16.7303 213.395 18.1159 212.809 19.2953C214.127 21.0453 215.166 22.4453 215.937 23.4856L214.293 25.202C213.375 23.989 212.556 22.7425 211.824 21.4624V31.6649H209.385V23.3082C208.872 24.2336 208.033 25.0151 206.863 25.6575L206.287 22.8528C208.902 20.9158 210.721 18.3413 211.746 15.1242H206.867V12.727H209.443V8.93944H211.883V12.727L211.878 12.7318ZM221.298 28.4383H225.001V30.8642H214.029V28.4383H218.8V16.3947H215.127V14.0455H218.8V9.1456H221.293V14.0455H224.693V16.3947H221.293V28.4383H221.298Z" fill="#605F5F"/>
<path d="M60.6824 9.18401C60.4726 10.1141 60.2384 11.0778 59.975 12.0798H69.4978V15.6469C69.288 17.9673 68.7709 20.0146 67.9367 21.7885C67.1074 23.5624 66.1024 25.0199 64.9315 26.161C63.7607 27.302 62.5606 28.2226 61.3312 28.9177C60.1018 29.6129 58.9505 30.1691 57.8723 30.591C56.7942 31.0081 55.8429 31.3197 55.0087 31.5259V28.4047C56.1795 28.05 57.3211 27.6089 58.4382 27.0815C59.5505 26.5541 60.7116 25.7726 61.9117 24.7418C63.1119 23.711 64.1217 22.4741 64.9462 21.0214C65.7658 19.5735 66.2634 17.5694 66.4341 15.0044H58.7553C57.5455 16.9174 56.4478 18.3509 55.4526 19.3098C54.4623 20.2639 53.6134 20.9686 52.9158 21.4145V17.5694C53.5597 16.9941 54.1939 16.2797 54.8281 15.4263C55.4624 14.5729 56.0185 13.614 56.5015 12.5593C56.9844 11.4997 57.3357 10.3778 57.565 9.1888H60.6824V9.18401Z" fill="#605F5F"/>
<path d="M74.2068 19.8273V16.9027H91.2133C91.2133 18.8876 90.8815 20.7287 90.2229 22.4163C89.5595 24.1039 88.6228 25.4895 87.4032 26.5682C86.1835 27.647 84.9395 28.4764 83.6613 29.0613C82.388 29.6463 81.1733 30.0682 80.022 30.3271C78.8706 30.586 77.8022 30.7921 76.8217 30.9407V27.7956C77.69 27.7045 78.6023 27.5319 79.5585 27.2826C80.5147 27.0333 81.5245 26.6498 82.5929 26.1415C83.6613 25.6333 84.7005 24.8567 85.7103 23.8163C86.7202 22.7759 87.3983 21.4478 87.7349 19.8321H74.2165L74.2068 19.8273ZM74.9971 13.1104V10.2433H89.9595V13.1104H74.9971Z" fill="#605F5F"/>
<path d="M96.199 23.6153V12.919H102.917V9.29923H105.922V12.919H112.864V16.7066C112.825 19.0271 112.483 21.0695 111.844 22.8338C111.2 24.5982 110.366 25.9741 109.337 26.957C108.307 27.9398 107.19 28.7453 105.99 29.3638C104.79 29.9871 103.683 30.4521 102.658 30.7542C101.639 31.061 100.721 31.2672 99.9066 31.3822V28.4576C101.004 28.2707 102.082 27.9638 103.151 27.5371C104.219 27.1104 105.302 26.4584 106.395 25.5858C107.493 24.7132 108.332 23.5482 108.917 22.0907C109.503 20.6332 109.805 18.8065 109.825 16.6155V15.81H99.1944V23.6105H96.1892L96.199 23.6153Z" fill="#605F5F"/>
<path d="M118.615 31.3004V9.29411H121.791V16.8693H131.665V19.9041H121.791V31.2956H118.615V31.3004ZM125.162 13.3645V9.35164H127.118V13.3645H125.162ZM128.221 13.3645V9.35164H130.177V13.3645H128.221Z" fill="#605F5F"/>
<path d="M173.83 28.6924V25.9165H178.767V23.8453H173.83V21.3187H178.493V9.44772H166.717V21.3187H171.415V23.8453H166.717V25.9165H171.4H171.42V28.6924H165.717V30.9122H179.069V28.6924H173.83ZM173.83 11.5956H176.108V14.3716H173.83V11.5956ZM173.83 16.3181H176.108V19.2475H173.83V16.3181ZM171.415 19.2475H169.058V16.3181H171.415V19.2475ZM171.415 14.3764H169.058V11.6004H171.415V14.3764Z" fill="#605F5F"/>
<path d="M160.013 12.732H161.906V17.7326H160.204V20.0578H161.906V26.4967C160.989 26.8659 160.316 27.1008 159.877 27.2015L160.15 29.5268C162.048 28.9227 164.228 28.2898 165.697 27.6282V25.1495C165.36 25.3604 164.555 25.5474 164.345 25.6913V20.0578H165.697V17.7326H164.345V12.732H165.697V10.3348H160.013V12.732Z" fill="#605F5F"/>
<path d="M146.861 12.2283V10.0085H142.275C142.441 9.40437 142.578 8.98246 142.685 8.74753L140.353 8.21535C139.729 10.0852 138.69 11.8112 137.226 13.3933L138.899 15.1097C139.797 14.2515 140.524 13.2926 141.095 12.2283H141.563C141.836 13.2063 142.129 14.146 142.441 15.057L144.773 14.3234C144.388 13.1296 144.188 12.4296 144.168 12.2283H146.866H146.861Z" fill="#605F5F"/>
<path d="M155.833 12.2282V10.0084H151.248C151.413 9.40433 151.55 8.98243 151.657 8.7475L149.325 8.21532C148.701 10.0851 147.662 11.8111 146.886 12.5926L148.56 14.309C148.769 14.2515 149.501 13.2926 150.067 12.2282H150.535C150.809 13.2063 151.101 14.146 151.413 15.0569L153.745 14.3234C153.36 13.1296 153.16 12.4296 153.14 12.2282H155.838H155.833Z" fill="#605F5F"/>
<path d="M142.958 23.8933H152.613V18.49H140.49V31.6698H142.958V30.6582H151.266V31.6698H153.759V25.0535H142.953V23.8933H142.958ZM142.958 20.5612H150.115V21.8748H142.958V20.5612ZM151.266 27.1295V28.6445H142.958V27.1295H151.266Z" fill="#605F5F"/>
<path d="M147.843 13.8538H145.345V15.3832H137.886V20.5611H140.325V17.4831H152.751V20.5611H155.19V15.3832H147.843V13.8538Z" fill="#605F5F"/>
<path d="M196.124 24.5501C196.637 25.5761 197.046 26.5349 197.359 27.4267C195.002 27.8486 192.744 28.1698 190.582 28.3856C191.221 26.5493 191.787 24.7418 192.285 22.9583H201.281V20.6858H184.552V22.9583H189.655C189.143 24.7418 188.524 26.6212 187.792 28.5917C187.299 28.6397 186.377 28.702 185.021 28.7691L185.157 31.0417C189.397 30.8739 193.807 30.3705 198.378 29.5266C198.432 29.8143 198.568 30.2218 198.788 30.7492C199.008 31.2814 199.193 31.6554 199.339 31.8711L201.476 30.8355C200.378 28.2417 199.31 25.8014 198.266 23.5145L196.124 24.5501Z" fill="#605F5F"/>
<path d="M192.914 10.6604C194.402 12.6405 200.213 17.7657 201.193 18.3363L202.237 16.0877C199.256 13.9829 196.607 11.5857 194.285 8.8913H191.544C189.221 11.6001 186.572 14.0021 183.592 16.0877L184.636 18.3363C185.606 17.7705 191.431 12.6405 192.919 10.6604H192.914Z" fill="#605F5F"/>
<path d="M198.051 16.313H187.797V18.6622H198.051V16.313Z" fill="#605F5F"/>
</svg>
