<svg width="749" height="474" viewBox="0 0 749 474" fill="none" xmlns="http://www.w3.org/2000/svg">
<path d="M0 106L383.12 0L749 106V474H0V106Z" fill="#FFFBFB" fill-opacity="0.73"/>
<path d="M99.35 410.5H148.05V419.4H99.35V410.5ZM113.65 349H125.25V361.1H113.65V349ZM76.75 355.9H163.75V375.9H151.95V364.9H88.05V375.9H76.75V355.9ZM98.95 369.1H147.85V391.5H98.95V383H135.95V377.7H98.95V369.1ZM99.45 396.1H155.45V422H143.55V404.9H99.45V396.1ZM92.35 369.1H103.75V422.1H92.35V369.1ZM86.75 335H118.35V344.5H86.75V335ZM127.25 335H166.05V344.5H127.25V335ZM87.25 327.2L98.35 330.3C96.4167 334.767 93.95 339.133 90.95 343.4C88.0167 347.6 85.0833 351.167 82.15 354.1C81.4167 353.433 80.45 352.7 79.25 351.9C78.05 351.1 76.85 350.3 75.65 349.5C74.45 348.7 73.35 348.067 72.35 347.6C75.4167 345.133 78.2833 342.067 80.95 338.4C83.6167 334.733 85.7167 331 87.25 327.2ZM127.95 327.2L139.35 330C137.55 334.333 135.217 338.467 132.35 342.4C129.483 346.267 126.55 349.5 123.55 352.1C122.683 351.5 121.617 350.867 120.35 350.2C119.15 349.467 117.883 348.767 116.55 348.1C115.217 347.367 114.05 346.8 113.05 346.4C116.25 344.133 119.15 341.3 121.75 337.9C124.417 334.433 126.483 330.867 127.95 327.2ZM90.55 342.4L100.75 339.6C101.95 341.333 103.15 343.3 104.35 345.5C105.617 347.633 106.583 349.467 107.25 351L96.45 354.1C95.9833 352.567 95.15 350.7 93.95 348.5C92.8167 346.233 91.6833 344.2 90.55 342.4ZM135.15 342.6L145.75 339.8C147.217 341.467 148.683 343.367 150.15 345.5C151.683 347.633 152.85 349.533 153.65 351.2L142.55 354.3C141.95 352.7 140.917 350.8 139.45 348.6C137.983 346.4 136.55 344.4 135.15 342.6ZM226.15 360.3V368.8H256.35V360.3H226.15ZM226.15 342.4V350.8H256.35V342.4H226.15ZM215.25 332.3H267.85V379H215.25V332.3ZM214.65 387.6H268.85V398.4H214.65V387.6ZM207.65 407.9H272.25V418.8H207.65V407.9ZM178.35 333.8H211.55V344.9H178.35V333.8ZM179.25 362.6H209.85V373.6H179.25V362.6ZM177.15 400.6C180.083 399.8 183.35 398.9 186.95 397.9C190.617 396.833 194.483 395.667 198.55 394.4C202.617 393.067 206.617 391.767 210.55 390.5L212.65 401.9C207.05 403.767 201.383 405.667 195.65 407.6C189.917 409.533 184.65 411.267 179.85 412.8L177.15 400.6ZM189.35 338.2H200.85V399.6L189.35 401.5V338.2ZM236.45 336.6H246.55V374.2H247.65V413H235.35V374.2H236.45V336.6ZM297.45 343.5H357.05V339.5H290.25V332.5H367.85V350.5H297.45V343.5ZM294.05 343.5H305.25C304.183 346.7 303.05 350.033 301.85 353.5C300.65 356.9 299.55 359.867 298.55 362.4L287.65 361.7C288.783 359.167 289.917 356.267 291.05 353C292.183 349.667 293.183 346.5 294.05 343.5ZM295.05 354.4H367.05V361.4H292.95L295.05 354.4ZM363.05 354.4H374.35C374.35 354.4 374.317 354.767 374.25 355.5C374.25 356.233 374.25 356.9 374.25 357.5C373.983 360.767 373.65 363.333 373.25 365.2C372.85 367.067 372.217 368.5 371.35 369.5C370.617 370.233 369.717 370.8 368.65 371.2C367.65 371.6 366.617 371.833 365.55 371.9C364.55 371.967 363.217 372 361.55 372C359.883 372 358.05 371.967 356.05 371.9C355.983 370.833 355.75 369.633 355.35 368.3C354.95 366.9 354.517 365.7 354.05 364.7C355.25 364.833 356.317 364.933 357.25 365C358.25 365.067 359.017 365.067 359.55 365C360.017 365 360.417 364.967 360.75 364.9C361.083 364.833 361.383 364.633 361.65 364.3C362.05 363.9 362.35 363.033 362.55 361.7C362.75 360.367 362.917 358.333 363.05 355.6V354.4ZM313.15 328H324.05V348.7C324.05 352.233 323.617 355.567 322.75 358.7C321.883 361.767 320.25 364.567 317.85 367.1C315.45 369.633 311.983 371.833 307.45 373.7C302.917 375.567 296.95 377.067 289.55 378.2C289.217 377.333 288.717 376.333 288.05 375.2C287.383 374 286.683 372.833 285.95 371.7C285.217 370.567 284.517 369.633 283.85 368.9C290.25 368.1 295.383 367.033 299.25 365.7C303.117 364.367 306.05 362.833 308.05 361.1C310.05 359.367 311.383 357.467 312.05 355.4C312.783 353.267 313.15 350.967 313.15 348.5V328ZM335.25 328H346.55V368.4H335.25V328ZM308.65 385.3V389.3H351.85V385.3H308.65ZM308.65 395.7V399.9H351.85V395.7H308.65ZM308.65 374.9V378.9H351.85V374.9H308.65ZM296.95 368.1H364.05V406.7H296.95V368.1ZM335.35 411.4L344.95 405.4C348.55 406.533 352.217 407.767 355.95 409.1C359.75 410.367 363.35 411.633 366.75 412.9C370.15 414.167 373.05 415.3 375.45 416.3L362.05 422.1C360.117 421.1 357.717 419.967 354.85 418.7C351.983 417.5 348.883 416.267 345.55 415C342.217 413.733 338.817 412.533 335.35 411.4ZM313.35 405.5L324.05 410.3C321.317 411.9 318.15 413.467 314.55 415C310.95 416.533 307.25 417.933 303.45 419.2C299.717 420.467 296.117 421.5 292.65 422.3C292.05 421.5 291.217 420.533 290.15 419.4C289.083 418.333 288.017 417.267 286.95 416.2C285.883 415.2 284.883 414.367 283.95 413.7C287.55 413.1 291.15 412.4 294.75 411.6C298.417 410.733 301.85 409.8 305.05 408.8C308.25 407.733 311.017 406.633 313.35 405.5ZM409.05 372.9C408.883 373.8 408.617 374.967 408.25 376.4C407.883 377.833 407.35 379.45 406.65 381.25C406.117 382.483 405.5 383.767 404.8 385.1C404.133 386.4 403.45 387.567 402.75 388.6C403.183 388.4 403.733 388.233 404.4 388.1C405.067 387.933 405.75 387.817 406.45 387.75C407.183 387.65 407.833 387.6 408.4 387.6C410.5 387.6 412.233 388.2 413.6 389.4C415 390.6 415.7 392.383 415.7 394.75C415.7 395.417 415.7 396.233 415.7 397.2C415.733 398.167 415.767 399.183 415.8 400.25C415.833 401.283 415.867 402.3 415.9 403.3C415.933 404.3 415.95 405.2 415.95 406H409.95C410.017 405.433 410.05 404.767 410.05 404C410.083 403.2 410.1 402.367 410.1 401.5C410.133 400.633 410.15 399.8 410.15 399C410.183 398.167 410.2 397.417 410.2 396.75C410.2 395.15 409.767 394.05 408.9 393.45C408.067 392.817 407.133 392.5 406.1 392.5C404.7 392.5 403.283 392.85 401.85 393.55C400.45 394.217 399.267 395.017 398.3 395.95C397.567 396.683 396.817 397.5 396.05 398.4C395.317 399.3 394.517 400.317 393.65 401.45L388.3 397.45C390.467 395.45 392.333 393.517 393.9 391.65C395.5 389.783 396.85 387.933 397.95 386.1C399.05 384.267 399.95 382.433 400.65 380.6C401.15 379.267 401.55 377.883 401.85 376.45C402.183 374.983 402.383 373.617 402.45 372.35L409.05 372.9ZM390.25 377.5C391.517 377.7 392.983 377.85 394.65 377.95C396.317 378.05 397.783 378.1 399.05 378.1C401.25 378.1 403.65 378.05 406.25 377.95C408.883 377.85 411.55 377.683 414.25 377.45C416.95 377.183 419.517 376.85 421.95 376.45L421.9 382.25C420.133 382.483 418.217 382.7 416.15 382.9C414.117 383.067 412.033 383.217 409.9 383.35C407.8 383.45 405.783 383.533 403.85 383.6C401.917 383.633 400.2 383.65 398.7 383.65C398.033 383.65 397.2 383.65 396.2 383.65C395.233 383.617 394.233 383.583 393.2 383.55C392.167 383.483 391.183 383.417 390.25 383.35V377.5ZM429.85 391.7C429.317 391.867 428.683 392.083 427.95 392.35C427.25 392.583 426.533 392.833 425.8 393.1C425.1 393.333 424.467 393.567 423.9 393.8C422.3 394.433 420.4 395.2 418.2 396.1C416.033 397 413.767 398.05 411.4 399.25C409.9 400.05 408.633 400.833 407.6 401.6C406.567 402.367 405.783 403.15 405.25 403.95C404.717 404.717 404.45 405.567 404.45 406.5C404.45 407.2 404.6 407.783 404.9 408.25C405.2 408.683 405.65 409.033 406.25 409.3C406.85 409.567 407.6 409.75 408.5 409.85C409.4 409.95 410.467 410 411.7 410C413.833 410 416.183 409.883 418.75 409.65C421.317 409.383 423.7 409.033 425.9 408.6L425.7 415.05C424.633 415.183 423.283 415.317 421.65 415.45C420.017 415.617 418.317 415.733 416.55 415.8C414.817 415.867 413.15 415.9 411.55 415.9C408.95 415.9 406.617 415.65 404.55 415.15C402.483 414.65 400.85 413.8 399.65 412.6C398.483 411.367 397.9 409.683 397.9 407.55C397.9 405.817 398.283 404.25 399.05 402.85C399.85 401.45 400.9 400.183 402.2 399.05C403.5 397.917 404.917 396.9 406.45 396C408.017 395.067 409.55 394.217 411.05 393.45C412.583 392.65 413.967 391.967 415.2 391.4C416.433 390.833 417.583 390.333 418.65 389.9C419.75 389.433 420.8 388.967 421.8 388.5C422.767 388.067 423.7 387.65 424.6 387.25C425.5 386.817 426.417 386.367 427.35 385.9L429.85 391.7ZM496.05 340.2H507.75V396.4H496.05V340.2ZM518.25 329.9H530.15V407.3C530.15 410.833 529.717 413.5 528.85 415.3C528.05 417.167 526.617 418.6 524.55 419.6C522.483 420.533 519.783 421.133 516.45 421.4C513.117 421.733 509.15 421.9 504.55 421.9C504.35 420.767 504.017 419.433 503.55 417.9C503.15 416.433 502.65 414.933 502.05 413.4C501.517 411.933 500.95 410.633 500.35 409.5C503.617 409.633 506.683 409.733 509.55 409.8C512.483 409.8 514.483 409.8 515.55 409.8C516.483 409.733 517.15 409.533 517.55 409.2C518.017 408.8 518.25 408.133 518.25 407.2V329.9ZM448.85 389.4H486.55V399.5H448.85V389.4ZM448.85 372.9H486.55V383H448.85V372.9ZM460.35 327.9H472.25V363.2H460.35V327.9ZM476.75 355.4H488.35V408C488.35 410.733 488.017 412.933 487.35 414.6C486.75 416.267 485.55 417.6 483.75 418.6C482.017 419.467 479.917 420 477.45 420.2C474.983 420.467 471.983 420.567 468.45 420.5C468.317 418.967 467.917 417.1 467.25 414.9C466.65 412.767 465.983 410.933 465.25 409.4C467.25 409.467 469.183 409.533 471.05 409.6C472.983 409.6 474.283 409.6 474.95 409.6C475.617 409.533 476.083 409.4 476.35 409.2C476.617 408.933 476.75 408.467 476.75 407.8V355.4ZM440.95 335.2L450.75 331.9C451.75 333.833 452.683 335.933 453.55 338.2C454.417 340.467 455.183 342.7 455.85 344.9C456.583 347.033 457.15 348.967 457.55 350.7L447.05 354.6C446.783 352.867 446.317 350.867 445.65 348.6C445.05 346.333 444.317 344.033 443.45 341.7C442.65 339.367 441.817 337.2 440.95 335.2ZM481.25 331L493.25 333.7C491.917 337.367 490.517 341.033 489.05 344.7C487.583 348.367 486.217 351.467 484.95 354L474.95 351.5C475.75 349.633 476.55 347.533 477.35 345.2C478.15 342.8 478.883 340.367 479.55 337.9C480.283 335.433 480.85 333.133 481.25 331ZM444.75 355.4H482.75V366.6H456.15V420.8H444.75V355.4ZM619.35 334.3L625.75 328.3C628.017 329.5 630.383 331 632.85 332.8C635.383 334.6 637.317 336.267 638.65 337.8L631.95 344.4C630.683 342.867 628.85 341.133 626.45 339.2C624.05 337.267 621.683 335.633 619.35 334.3ZM589.75 373.3H607.85V401.5H589.75V392.7H599.95V382H589.75V373.3ZM627.25 359.8L637.65 361.8C634.583 375.133 630.083 386.833 624.15 396.9C618.283 406.9 610.85 415.033 601.85 421.3C601.383 420.633 600.65 419.8 599.65 418.8C598.65 417.867 597.65 416.9 596.65 415.9C595.65 414.967 594.75 414.2 593.95 413.6C602.817 408.2 609.95 400.933 615.35 391.8C620.75 382.6 624.717 371.933 627.25 359.8ZM571.85 342.8H582.25V370.8C582.25 374.533 582.117 378.633 581.85 383.1C581.65 387.5 581.217 392.033 580.55 396.7C579.883 401.3 578.883 405.767 577.55 410.1C576.283 414.433 574.583 418.333 572.45 421.8C571.85 421.2 570.983 420.5 569.85 419.7C568.717 418.9 567.583 418.133 566.45 417.4C565.317 416.667 564.317 416.133 563.45 415.8C566.05 411.467 567.917 406.667 569.05 401.4C570.25 396.133 571.017 390.867 571.35 385.6C571.683 380.267 571.85 375.333 571.85 370.8V342.8ZM578.25 342.8H637.85V353.3H578.25V342.8ZM585.65 358.9H606.95V367.7H585.65V358.9ZM585.15 373.3H592.95V406.8H585.15V373.3ZM549.75 337.3L556.45 328.6C558.383 329.4 560.383 330.367 562.45 331.5C564.583 332.567 566.583 333.667 568.45 334.8C570.383 335.933 571.95 337.067 573.15 338.2L565.95 347.8C564.883 346.667 563.417 345.5 561.55 344.3C559.75 343.033 557.817 341.8 555.75 340.6C553.683 339.333 551.683 338.233 549.75 337.3ZM545.05 364.4L551.65 355.6C553.583 356.267 555.583 357.133 557.65 358.2C559.783 359.2 561.783 360.267 563.65 361.4C565.517 362.533 567.05 363.633 568.25 364.7L561.25 374.4C560.117 373.333 558.65 372.2 556.85 371C555.05 369.733 553.083 368.533 550.95 367.4C548.883 366.267 546.917 365.267 545.05 364.4ZM545.55 413.9C546.883 411.167 548.317 408 549.85 404.4C551.383 400.733 552.917 396.867 554.45 392.8C555.983 388.667 557.417 384.6 558.75 380.6L568.35 386.7C567.217 390.433 565.983 394.233 564.65 398.1C563.317 401.9 561.95 405.667 560.55 409.4C559.217 413.067 557.85 416.567 556.45 419.9L545.55 413.9ZM607.85 329.2H618.85C618.917 337.333 619.15 345.233 619.55 352.9C619.95 360.567 620.483 367.7 621.15 374.3C621.883 380.9 622.683 386.667 623.55 391.6C624.417 396.533 625.35 400.4 626.35 403.2C627.35 406 628.417 407.433 629.55 407.5C630.283 407.567 630.883 406.367 631.35 403.9C631.817 401.433 632.183 397.867 632.45 393.2C633.05 394 633.917 394.833 635.05 395.7C636.183 396.5 637.283 397.267 638.35 398C639.483 398.667 640.35 399.133 640.95 399.4C640.15 405.533 639.083 410.2 637.75 413.4C636.483 416.6 635.117 418.767 633.65 419.9C632.183 421.1 630.75 421.7 629.35 421.7C626.283 421.633 623.583 420.133 621.25 417.2C618.983 414.267 617.05 410.067 615.45 404.6C613.85 399.133 612.517 392.6 611.45 385C610.45 377.4 609.65 368.9 609.05 359.5C608.517 350.1 608.117 340 607.85 329.2Z" fill="#022732"/>
<path d="M409.05 276.75C408.717 279.283 408.283 281.983 407.75 284.85C407.217 287.717 406.5 290.617 405.6 293.55C404.633 296.917 403.5 299.817 402.2 302.25C400.9 304.683 399.467 306.567 397.9 307.9C396.367 309.2 394.683 309.85 392.85 309.85C391.017 309.85 389.317 309.233 387.75 308C386.217 306.733 384.983 305 384.05 302.8C383.15 300.6 382.7 298.1 382.7 295.3C382.7 292.4 383.283 289.667 384.45 287.1C385.617 284.533 387.233 282.267 389.3 280.3C391.4 278.3 393.833 276.733 396.6 275.6C399.4 274.467 402.417 273.9 405.65 273.9C408.75 273.9 411.533 274.4 414 275.4C416.5 276.4 418.633 277.783 420.4 279.55C422.167 281.317 423.517 283.383 424.45 285.75C425.383 288.117 425.85 290.667 425.85 293.4C425.85 296.9 425.133 300.033 423.7 302.8C422.267 305.567 420.133 307.85 417.3 309.65C414.5 311.45 411 312.683 406.8 313.35L403.05 307.4C404.017 307.3 404.867 307.183 405.6 307.05C406.333 306.917 407.033 306.767 407.7 306.6C409.3 306.2 410.783 305.633 412.15 304.9C413.55 304.133 414.767 303.2 415.8 302.1C416.833 300.967 417.633 299.65 418.2 298.15C418.8 296.65 419.1 295 419.1 293.2C419.1 291.233 418.8 289.433 418.2 287.8C417.6 286.167 416.717 284.75 415.55 283.55C414.383 282.317 412.967 281.383 411.3 280.75C409.633 280.083 407.717 279.75 405.55 279.75C402.883 279.75 400.533 280.233 398.5 281.2C396.467 282.133 394.75 283.35 393.35 284.85C391.95 286.35 390.883 287.967 390.15 289.7C389.45 291.433 389.1 293.083 389.1 294.65C389.1 296.317 389.3 297.717 389.7 298.85C390.1 299.95 390.583 300.783 391.15 301.35C391.75 301.883 392.383 302.15 393.05 302.15C393.75 302.15 394.433 301.8 395.1 301.1C395.8 300.367 396.483 299.267 397.15 297.8C397.817 296.333 398.483 294.483 399.15 292.25C399.917 289.85 400.567 287.283 401.1 284.55C401.633 281.817 402.017 279.15 402.25 276.55L409.05 276.75Z" fill="#022732"/>
<path d="M474.284 202.61C473.91 203.077 473.444 203.683 472.884 204.43C472.324 205.13 471.88 205.737 471.554 206.25C470.48 208.07 469.057 210.17 467.284 212.55C465.51 214.883 463.55 217.217 461.404 219.55C459.257 221.837 457.04 223.797 454.754 225.43L447.474 219.62C448.874 218.78 450.25 217.8 451.604 216.68C452.957 215.56 454.194 214.393 455.314 213.18C456.48 211.92 457.484 210.73 458.324 209.61C459.21 208.49 459.887 207.487 460.354 206.6C459.747 206.6 458.72 206.6 457.274 206.6C455.827 206.6 454.1 206.6 452.094 206.6C450.087 206.6 447.917 206.6 445.584 206.6C443.297 206.6 441.01 206.6 438.724 206.6C436.437 206.6 434.267 206.6 432.214 206.6C430.207 206.6 428.457 206.6 426.964 206.6C425.517 206.6 424.49 206.6 423.884 206.6C422.437 206.6 421.06 206.647 419.754 206.74C418.447 206.833 416.977 206.95 415.344 207.09V197.36C416.697 197.547 418.097 197.71 419.544 197.85C420.99 197.99 422.437 198.06 423.884 198.06C424.49 198.06 425.564 198.06 427.104 198.06C428.644 198.06 430.464 198.06 432.564 198.06C434.71 198.06 436.974 198.06 439.354 198.06C441.78 198.06 444.184 198.06 446.564 198.06C448.99 198.06 451.23 198.06 453.284 198.06C455.384 198.06 457.157 198.06 458.604 198.06C460.097 198.06 461.1 198.06 461.614 198.06C462.267 198.06 463.06 198.037 463.994 197.99C464.927 197.943 465.837 197.873 466.724 197.78C467.657 197.687 468.334 197.57 468.754 197.43L474.284 202.61ZM445.724 212.06C445.724 215.513 445.654 218.85 445.514 222.07C445.374 225.29 444.977 228.393 444.324 231.38C443.717 234.32 442.714 237.12 441.314 239.78C439.96 242.44 438.07 244.96 435.644 247.34C433.217 249.72 430.114 251.913 426.334 253.92L418.144 247.27C419.264 246.897 420.454 246.407 421.714 245.8C422.974 245.147 424.234 244.353 425.494 243.42C427.734 241.88 429.53 240.247 430.884 238.52C432.284 236.793 433.357 234.927 434.104 232.92C434.85 230.867 435.364 228.65 435.644 226.27C435.924 223.843 436.064 221.207 436.064 218.36C436.064 217.287 436.04 216.26 435.994 215.28C435.947 214.253 435.807 213.18 435.574 212.06H445.724ZM528.636 199.67C528.636 200.79 529.033 201.747 529.826 202.54C530.62 203.287 531.576 203.66 532.696 203.66C533.816 203.66 534.773 203.287 535.566 202.54C536.36 201.747 536.756 200.79 536.756 199.67C536.756 198.55 536.36 197.593 535.566 196.8C534.773 196.007 533.816 195.61 532.696 195.61C531.576 195.61 530.62 196.007 529.826 196.8C529.033 197.593 528.636 198.55 528.636 199.67ZM524.296 199.67C524.296 198.13 524.67 196.73 525.416 195.47C526.21 194.163 527.236 193.137 528.496 192.39C529.756 191.643 531.156 191.27 532.696 191.27C534.236 191.27 535.636 191.643 536.896 192.39C538.156 193.137 539.16 194.163 539.906 195.47C540.7 196.73 541.096 198.13 541.096 199.67C541.096 201.163 540.7 202.54 539.906 203.8C539.16 205.06 538.156 206.087 536.896 206.88C535.636 207.627 534.236 208 532.696 208C531.156 208 529.756 207.627 528.496 206.88C527.236 206.087 526.21 205.06 525.416 203.8C524.67 202.54 524.296 201.163 524.296 199.67ZM486.006 228.23C486.8 226.27 487.546 224.217 488.246 222.07C488.993 219.877 489.646 217.637 490.206 215.35C490.766 213.017 491.256 210.707 491.676 208.42C492.143 206.133 492.47 203.87 492.656 201.63L502.876 203.73C502.69 204.383 502.48 205.153 502.246 206.04C502.013 206.927 501.803 207.79 501.616 208.63C501.43 209.47 501.29 210.17 501.196 210.73C500.963 211.943 500.636 213.413 500.216 215.14C499.796 216.867 499.306 218.71 498.746 220.67C498.186 222.583 497.603 224.52 496.996 226.48C496.436 228.393 495.853 230.167 495.246 231.8C494.406 234.04 493.403 236.373 492.236 238.8C491.116 241.227 489.903 243.56 488.596 245.8C487.336 248.04 486.1 250.047 484.886 251.82L475.086 247.69C477.326 244.797 479.403 241.6 481.316 238.1C483.276 234.6 484.84 231.31 486.006 228.23ZM520.586 226.76C519.886 224.893 519.116 222.91 518.276 220.81C517.436 218.71 516.55 216.61 515.616 214.51C514.683 212.41 513.773 210.427 512.886 208.56C512 206.693 511.183 205.083 510.436 203.73L519.746 200.72C520.446 202.073 521.263 203.707 522.196 205.62C523.13 207.533 524.063 209.563 524.996 211.71C525.93 213.81 526.84 215.91 527.726 218.01C528.613 220.11 529.406 222 530.106 223.68C530.713 225.22 531.366 227.04 532.066 229.14C532.813 231.24 533.56 233.433 534.306 235.72C535.1 237.96 535.823 240.153 536.476 242.3C537.176 244.447 537.76 246.383 538.226 248.11L527.866 251.47C527.26 248.717 526.56 245.917 525.766 243.07C524.973 240.223 524.133 237.423 523.246 234.67C522.406 231.917 521.52 229.28 520.586 226.76ZM545.506 217.59C546.346 217.637 547.42 217.707 548.726 217.8C550.033 217.847 551.386 217.893 552.786 217.94C554.233 217.987 555.563 218.01 556.776 218.01C557.943 218.01 559.39 218.01 561.116 218.01C562.843 218.01 564.71 218.01 566.716 218.01C568.77 218.01 570.87 218.01 573.016 218.01C575.21 218.01 577.38 218.01 579.526 218.01C581.673 218.01 583.703 218.01 585.616 218.01C587.53 218.01 589.233 218.01 590.726 218.01C592.266 218.01 593.48 218.01 594.366 218.01C596 218.01 597.54 217.963 598.986 217.87C600.433 217.73 601.623 217.637 602.556 217.59V228.58C601.763 228.533 600.573 228.463 598.986 228.37C597.4 228.277 595.86 228.23 594.366 228.23C593.48 228.23 592.266 228.23 590.726 228.23C589.186 228.23 587.46 228.23 585.546 228.23C583.633 228.23 581.603 228.23 579.456 228.23C577.356 228.23 575.21 228.23 573.016 228.23C570.823 228.23 568.7 228.23 566.646 228.23C564.64 228.23 562.773 228.23 561.046 228.23C559.366 228.23 557.943 228.23 556.776 228.23C554.77 228.23 552.716 228.277 550.616 228.37C548.516 228.417 546.813 228.487 545.506 228.58V217.59ZM620.546 243.28C620.546 242.393 620.546 240.947 620.546 238.94C620.546 236.887 620.546 234.53 620.546 231.87C620.546 229.163 620.546 226.34 620.546 223.4C620.546 220.46 620.546 217.637 620.546 214.93C620.546 212.177 620.546 209.75 620.546 207.65C620.546 205.55 620.546 204.01 620.546 203.03C620.546 201.817 620.476 200.417 620.336 198.83C620.243 197.243 620.08 195.843 619.846 194.63H630.766C630.626 195.843 630.486 197.197 630.346 198.69C630.206 200.137 630.136 201.583 630.136 203.03C630.136 204.337 630.136 206.11 630.136 208.35C630.136 210.59 630.136 213.087 630.136 215.84C630.136 218.547 630.136 221.323 630.136 224.17C630.136 226.97 630.136 229.677 630.136 232.29C630.136 234.903 630.136 237.19 630.136 239.15C630.136 241.063 630.136 242.44 630.136 243.28C630.136 243.933 630.16 244.867 630.206 246.08C630.253 247.247 630.346 248.46 630.486 249.72C630.626 250.98 630.72 252.1 630.766 253.08H619.846C620.033 251.68 620.196 250.047 620.336 248.18C620.476 246.313 620.546 244.68 620.546 243.28ZM628.036 212.76C630.37 213.367 632.983 214.16 635.876 215.14C638.77 216.073 641.686 217.077 644.626 218.15C647.566 219.223 650.32 220.297 652.886 221.37C655.5 222.397 657.67 223.353 659.396 224.24L655.406 233.9C653.446 232.873 651.276 231.847 648.896 230.82C646.516 229.747 644.09 228.72 641.616 227.74C639.19 226.76 636.786 225.85 634.406 225.01C632.073 224.17 629.95 223.423 628.036 222.77V212.76Z" fill="#008CB3"/>
<path d="M122.81 205.9C122.297 206.46 121.83 206.973 121.41 207.44C121.037 207.907 120.71 208.373 120.43 208.84C119.03 211.08 117.373 213.507 115.46 216.12C113.547 218.733 111.423 221.37 109.09 224.03C106.757 226.69 104.283 229.257 101.67 231.73C99.1033 234.203 96.4433 236.443 93.69 238.45L86.76 231.94C89.0933 230.353 91.2867 228.603 93.34 226.69C95.44 224.73 97.3767 222.747 99.15 220.74C100.97 218.733 102.58 216.773 103.98 214.86C105.38 212.947 106.547 211.197 107.48 209.61C106.547 209.61 105.31 209.61 103.77 209.61C102.23 209.61 100.433 209.61 98.38 209.61C96.3733 209.61 94.25 209.61 92.01 209.61C89.77 209.61 87.53 209.61 85.29 209.61C83.0967 209.61 80.9967 209.61 78.99 209.61C77.03 209.61 75.3033 209.61 73.81 209.61C72.3633 209.61 71.2433 209.61 70.45 209.61C69.5167 209.61 68.5133 209.633 67.44 209.68C66.4133 209.727 65.4333 209.797 64.5 209.89C63.5667 209.983 62.8667 210.053 62.4 210.1V200.3C63.0067 200.347 63.7767 200.44 64.71 200.58C65.69 200.72 66.6933 200.813 67.72 200.86C68.7467 200.907 69.6567 200.93 70.45 200.93C71.0567 200.93 72.0833 200.93 73.53 200.93C75.0233 200.93 76.7733 200.93 78.78 200.93C80.7867 200.93 82.9333 200.93 85.22 200.93C87.5533 200.93 89.8867 200.93 92.22 200.93C94.6 200.93 96.8867 200.93 99.08 200.93C101.273 200.93 103.233 200.93 104.96 200.93C106.733 200.93 108.18 200.93 109.3 200.93C112.053 200.93 114.223 200.673 115.81 200.16L122.81 205.9ZM85.85 239.43C84.8233 238.403 83.6333 237.283 82.28 236.07C80.9733 234.81 79.5967 233.55 78.15 232.29C76.75 231.03 75.3733 229.863 74.02 228.79C72.7133 227.67 71.5233 226.737 70.45 225.99L77.87 220.04C78.8033 220.74 79.9 221.603 81.16 222.63C82.4667 223.657 83.8433 224.777 85.29 225.99C86.7367 227.203 88.2067 228.463 89.7 229.77C91.1933 231.077 92.6167 232.36 93.97 233.62C95.51 235.113 97.0967 236.723 98.73 238.45C100.41 240.177 101.997 241.857 103.49 243.49C105.03 245.123 106.337 246.64 107.41 248.04L99.22 254.55C98.24 253.243 96.98 251.727 95.44 250C93.9467 248.227 92.36 246.407 90.68 244.54C89 242.673 87.39 240.97 85.85 239.43ZM139.47 196.8C140.683 197.64 142.107 198.667 143.74 199.88C145.373 201.093 147.053 202.423 148.78 203.87C150.553 205.27 152.21 206.647 153.75 208C155.29 209.353 156.55 210.567 157.53 211.64L150.39 218.92C149.503 217.94 148.337 216.773 146.89 215.42C145.443 214.067 143.88 212.667 142.2 211.22C140.52 209.773 138.863 208.397 137.23 207.09C135.597 205.783 134.15 204.687 132.89 203.8L139.47 196.8ZM130.72 243.42C134.36 242.907 137.79 242.183 141.01 241.25C144.23 240.317 147.217 239.243 149.97 238.03C152.723 236.817 155.243 235.557 157.53 234.25C161.497 231.87 165.137 229.163 168.45 226.13C171.763 223.097 174.657 219.947 177.13 216.68C179.603 213.367 181.563 210.147 183.01 207.02L188.47 216.89C186.697 220.017 184.503 223.143 181.89 226.27C179.323 229.397 176.407 232.383 173.14 235.23C169.873 238.03 166.35 240.55 162.57 242.79C160.19 244.237 157.623 245.613 154.87 246.92C152.117 248.18 149.2 249.3 146.12 250.28C143.087 251.307 139.913 252.1 136.6 252.66L130.72 243.42ZM210.73 194.56C211.85 195.213 213.133 195.983 214.58 196.87C216.027 197.757 217.497 198.667 218.99 199.6C220.53 200.533 221.953 201.443 223.26 202.33C224.613 203.17 225.757 203.917 226.69 204.57L221.44 212.34C220.507 211.64 219.363 210.847 218.01 209.96C216.657 209.073 215.257 208.163 213.81 207.23C212.363 206.297 210.917 205.41 209.47 204.57C208.07 203.683 206.787 202.913 205.62 202.26L210.73 194.56ZM197.71 244.26C200.37 243.793 203.03 243.233 205.69 242.58C208.397 241.88 211.08 241.017 213.74 239.99C216.447 238.963 219.06 237.773 221.58 236.42C225.547 234.18 229.233 231.66 232.64 228.86C236.093 226.06 239.173 223.073 241.88 219.9C244.633 216.727 246.943 213.483 248.81 210.17L254.2 219.69C250.933 224.543 246.897 229.117 242.09 233.41C237.33 237.703 232.08 241.507 226.34 244.82C223.96 246.173 221.347 247.433 218.5 248.6C215.7 249.767 212.923 250.77 210.17 251.61C207.463 252.497 205.06 253.127 202.96 253.5L197.71 244.26ZM199.95 210.52C201.117 211.173 202.423 211.943 203.87 212.83C205.363 213.67 206.857 214.557 208.35 215.49C209.843 216.423 211.243 217.31 212.55 218.15C213.903 218.99 215.023 219.737 215.91 220.39L210.8 228.23C209.773 227.53 208.607 226.76 207.3 225.92C205.993 225.033 204.593 224.123 203.1 223.19C201.653 222.21 200.207 221.3 198.76 220.46C197.36 219.62 196.053 218.897 194.84 218.29L199.95 210.52ZM266.31 210.45C266.917 210.497 267.733 210.567 268.76 210.66C269.787 210.707 270.86 210.753 271.98 210.8C273.1 210.8 274.103 210.8 274.99 210.8C276.11 210.8 277.557 210.8 279.33 210.8C281.103 210.8 283.017 210.8 285.07 210.8C287.17 210.8 289.247 210.8 291.3 210.8C293.353 210.8 295.267 210.8 297.04 210.8C298.813 210.8 300.283 210.8 301.45 210.8C302.29 210.8 303.247 210.8 304.32 210.8C305.44 210.753 306.28 210.707 306.84 210.66C306.793 211.127 306.77 211.85 306.77 212.83C306.77 213.763 306.77 214.603 306.77 215.35C306.77 215.863 306.77 216.937 306.77 218.57C306.77 220.157 306.77 222.117 306.77 224.45C306.77 226.783 306.77 229.257 306.77 231.87C306.77 234.483 306.77 237.05 306.77 239.57C306.77 242.043 306.77 244.26 306.77 246.22C306.77 248.133 306.77 249.557 306.77 250.49C306.77 251.05 306.77 251.82 306.77 252.8C306.817 253.827 306.84 254.643 306.84 255.25H298.02C298.067 254.643 298.09 253.803 298.09 252.73C298.09 251.657 298.09 250.77 298.09 250.07C298.09 248.857 298.09 247.317 298.09 245.45C298.09 243.537 298.09 241.483 298.09 239.29C298.09 237.05 298.09 234.81 298.09 232.57C298.09 230.283 298.09 228.16 298.09 226.2C298.09 224.24 298.09 222.607 298.09 221.3C298.09 219.947 298.09 219.06 298.09 218.64C297.67 218.64 296.923 218.64 295.85 218.64C294.777 218.64 293.54 218.64 292.14 218.64C290.74 218.64 289.223 218.64 287.59 218.64C286.003 218.64 284.417 218.64 282.83 218.64C281.29 218.64 279.82 218.64 278.42 218.64C277.067 218.64 275.923 218.64 274.99 218.64C274.103 218.64 273.1 218.663 271.98 218.71C270.86 218.71 269.763 218.733 268.69 218.78C267.663 218.827 266.87 218.873 266.31 218.92V210.45ZM268.13 226.9C269.063 226.947 270.23 226.993 271.63 227.04C273.077 227.087 274.453 227.11 275.76 227.11C276.32 227.11 277.3 227.11 278.7 227.11C280.147 227.11 281.803 227.11 283.67 227.11C285.583 227.11 287.543 227.11 289.55 227.11C291.557 227.11 293.447 227.11 295.22 227.11C297.04 227.11 298.58 227.11 299.84 227.11C301.1 227.11 301.87 227.11 302.15 227.11V235.02C301.823 235.02 301.03 235.02 299.77 235.02C298.557 235.02 297.04 235.02 295.22 235.02C293.447 235.02 291.557 235.02 289.55 235.02C287.543 235.02 285.583 235.02 283.67 235.02C281.803 235.02 280.17 235.02 278.77 235.02C277.37 235.02 276.367 235.02 275.76 235.02C274.453 235.02 273.053 235.043 271.56 235.09C270.113 235.09 268.97 235.113 268.13 235.16V226.9ZM265.54 244.05C266.147 244.097 266.987 244.167 268.06 244.26C269.133 244.307 270.323 244.33 271.63 244.33C272.33 244.33 273.497 244.33 275.13 244.33C276.763 244.33 278.63 244.33 280.73 244.33C282.877 244.33 285.093 244.33 287.38 244.33C289.667 244.33 291.837 244.33 293.89 244.33C295.99 244.33 297.787 244.33 299.28 244.33C300.773 244.33 301.753 244.33 302.22 244.33V252.45C301.613 252.45 300.54 252.45 299 252.45C297.46 252.45 295.64 252.45 293.54 252.45C291.487 252.45 289.34 252.45 287.1 252.45C284.86 252.45 282.69 252.45 280.59 252.45C278.49 252.45 276.623 252.45 274.99 252.45C273.403 252.45 272.26 252.45 271.56 252.45C270.58 252.45 269.483 252.473 268.27 252.52C267.057 252.567 266.147 252.613 265.54 252.66V244.05ZM334.77 196.8C335.983 197.64 337.407 198.667 339.04 199.88C340.673 201.093 342.353 202.423 344.08 203.87C345.853 205.27 347.51 206.647 349.05 208C350.59 209.353 351.85 210.567 352.83 211.64L345.69 218.92C344.803 217.94 343.637 216.773 342.19 215.42C340.743 214.067 339.18 212.667 337.5 211.22C335.82 209.773 334.163 208.397 332.53 207.09C330.897 205.783 329.45 204.687 328.19 203.8L334.77 196.8ZM326.02 243.42C329.66 242.907 333.09 242.183 336.31 241.25C339.53 240.317 342.517 239.243 345.27 238.03C348.023 236.817 350.543 235.557 352.83 234.25C356.797 231.87 360.437 229.163 363.75 226.13C367.063 223.097 369.957 219.947 372.43 216.68C374.903 213.367 376.863 210.147 378.31 207.02L383.77 216.89C381.997 220.017 379.803 223.143 377.19 226.27C374.623 229.397 371.707 232.383 368.44 235.23C365.173 238.03 361.65 240.55 357.87 242.79C355.49 244.237 352.923 245.613 350.17 246.92C347.417 248.18 344.5 249.3 341.42 250.28C338.387 251.307 335.213 252.1 331.9 252.66L326.02 243.42Z" fill="#008CB3"/>
<path d="M400.5 217.672C401.46 217.672 402.324 217.896 403.092 218.344C403.86 218.792 404.468 219.4 404.916 220.168C405.364 220.936 405.588 221.8 405.588 222.76C405.588 223.688 405.364 224.552 404.916 225.352C404.468 226.12 403.86 226.728 403.092 227.176C402.324 227.624 401.46 227.848 400.5 227.848C399.572 227.848 398.708 227.624 397.908 227.176C397.14 226.728 396.532 226.12 396.084 225.352C395.636 224.552 395.412 223.688 395.412 222.76C395.412 221.8 395.636 220.936 396.084 220.168C396.532 219.4 397.14 218.792 397.908 218.344C398.708 217.896 399.572 217.672 400.5 217.672Z" fill="#008CB3"/>
<path d="M124.562 123.76L125.982 125.2C125.076 125.48 124.056 125.74 122.922 125.98C121.789 126.207 120.616 126.413 119.402 126.6C118.202 126.773 117.042 126.92 115.922 127.04C115.882 126.827 115.802 126.573 115.682 126.28C115.576 125.987 115.476 125.74 115.382 125.54C116.196 125.447 117.029 125.34 117.882 125.22C118.736 125.087 119.569 124.94 120.382 124.78C121.196 124.62 121.956 124.46 122.662 124.3C123.382 124.127 124.016 123.947 124.562 123.76ZM114.882 125.04L116.722 125.64V137.16H114.882V125.04ZM113.542 136.8C114.489 136.667 115.616 136.5 116.922 136.3C118.229 136.087 119.556 135.867 120.902 135.64L121.002 137.34C119.776 137.567 118.536 137.787 117.282 138C116.042 138.213 114.929 138.407 113.942 138.58L113.542 136.8ZM115.962 130.02H126.862V131.74H115.962V130.02ZM120.302 125.74H122.222C122.209 127.14 122.256 128.5 122.362 129.82C122.482 131.14 122.636 132.367 122.822 133.5C123.009 134.62 123.229 135.6 123.482 136.44C123.749 137.28 124.022 137.933 124.302 138.4C124.596 138.867 124.882 139.1 125.162 139.1C125.349 139.1 125.489 138.88 125.582 138.44C125.676 138 125.742 137.307 125.782 136.36C125.982 136.56 126.222 136.753 126.502 136.94C126.782 137.113 127.036 137.247 127.262 137.34C127.182 138.3 127.056 139.04 126.882 139.56C126.709 140.08 126.469 140.44 126.162 140.64C125.856 140.853 125.469 140.96 125.002 140.96C124.376 140.96 123.816 140.68 123.322 140.12C122.829 139.573 122.396 138.82 122.022 137.86C121.662 136.887 121.356 135.76 121.102 134.48C120.862 133.187 120.676 131.8 120.542 130.32C120.409 128.827 120.329 127.3 120.302 125.74ZM114.202 139.54H122.502V141.22H114.202V139.54ZM112.642 123.2L114.442 123.74C114.002 124.873 113.489 126 112.902 127.12C112.316 128.24 111.682 129.293 111.002 130.28C110.322 131.267 109.622 132.14 108.902 132.9C108.836 132.74 108.742 132.54 108.622 132.3C108.502 132.06 108.369 131.813 108.222 131.56C108.089 131.307 107.969 131.113 107.862 130.98C108.502 130.34 109.116 129.607 109.702 128.78C110.302 127.953 110.856 127.06 111.362 126.1C111.869 125.14 112.296 124.173 112.642 123.2ZM110.642 128.5L112.422 126.72L112.442 126.74V141.66H110.642V128.5ZM131.902 126.08C132.262 126.107 132.656 126.133 133.082 126.16C133.509 126.187 133.889 126.2 134.222 126.2H144.162C144.429 126.2 144.716 126.2 145.022 126.2C145.342 126.187 145.589 126.173 145.762 126.16C145.749 126.387 145.736 126.66 145.722 126.98C145.722 127.287 145.722 127.573 145.722 127.84V138.18C145.722 138.527 145.729 138.913 145.742 139.34C145.769 139.753 145.789 140.073 145.802 140.3H143.522C143.522 140.073 143.529 139.793 143.542 139.46C143.556 139.113 143.562 138.76 143.562 138.4V128.22H134.222C133.836 128.22 133.416 128.227 132.962 128.24C132.509 128.253 132.156 128.273 131.902 128.3V126.08ZM131.662 137.04C131.956 137.053 132.309 137.073 132.722 137.1C133.136 137.127 133.556 137.14 133.982 137.14H144.742V139.22H134.062C133.662 139.22 133.236 139.227 132.782 139.24C132.329 139.253 131.956 139.273 131.662 139.3V137.04ZM165.902 126.54C165.822 126.633 165.722 126.787 165.602 127C165.482 127.213 165.389 127.407 165.322 127.58C165.042 128.22 164.696 128.933 164.282 129.72C163.882 130.507 163.422 131.293 162.902 132.08C162.396 132.853 161.862 133.56 161.302 134.2C160.569 135.04 159.756 135.86 158.862 136.66C157.982 137.46 157.049 138.2 156.062 138.88C155.076 139.547 154.056 140.127 153.002 140.62L151.382 138.92C152.462 138.493 153.502 137.967 154.502 137.34C155.516 136.713 156.456 136.027 157.322 135.28C158.189 134.533 158.949 133.793 159.602 133.06C160.056 132.553 160.496 131.993 160.922 131.38C161.349 130.753 161.729 130.127 162.062 129.5C162.396 128.873 162.636 128.3 162.782 127.78C162.662 127.78 162.416 127.78 162.042 127.78C161.669 127.78 161.222 127.78 160.702 127.78C160.196 127.78 159.662 127.78 159.102 127.78C158.556 127.78 158.022 127.78 157.502 127.78C156.996 127.78 156.556 127.78 156.182 127.78C155.809 127.78 155.562 127.78 155.442 127.78C155.189 127.78 154.909 127.793 154.602 127.82C154.309 127.833 154.036 127.853 153.782 127.88C153.542 127.893 153.369 127.9 153.262 127.9V125.64C153.396 125.653 153.596 125.673 153.862 125.7C154.129 125.713 154.409 125.733 154.702 125.76C154.996 125.773 155.242 125.78 155.442 125.78C155.589 125.78 155.849 125.78 156.222 125.78C156.609 125.78 157.056 125.78 157.562 125.78C158.082 125.78 158.622 125.78 159.182 125.78C159.742 125.78 160.276 125.78 160.782 125.78C161.289 125.78 161.729 125.78 162.102 125.78C162.476 125.78 162.729 125.78 162.862 125.78C163.236 125.78 163.576 125.76 163.882 125.72C164.189 125.68 164.429 125.633 164.602 125.58L165.902 126.54ZM161.562 132.88C162.096 133.32 162.656 133.813 163.242 134.36C163.829 134.907 164.402 135.473 164.962 136.06C165.522 136.633 166.042 137.187 166.522 137.72C167.016 138.253 167.429 138.727 167.762 139.14L166.002 140.7C165.509 140.033 164.942 139.333 164.302 138.6C163.662 137.867 162.982 137.133 162.262 136.4C161.542 135.653 160.822 134.96 160.102 134.32L161.562 132.88ZM177.142 138.16C177.142 137.947 177.142 137.56 177.142 137C177.142 136.427 177.142 135.753 177.142 134.98C177.142 134.193 177.142 133.38 177.142 132.54C177.142 131.687 177.142 130.86 177.142 130.06C177.142 129.26 177.142 128.553 177.142 127.94C177.142 127.327 177.142 126.88 177.142 126.6C177.142 126.28 177.129 125.913 177.102 125.5C177.076 125.073 177.029 124.693 176.962 124.36H179.422C179.396 124.68 179.362 125.047 179.322 125.46C179.296 125.873 179.282 126.253 179.282 126.6C179.282 127.053 179.282 127.627 179.282 128.32C179.282 129 179.282 129.74 179.282 130.54C179.282 131.34 179.282 132.147 179.282 132.96C179.282 133.773 179.282 134.54 179.282 135.26C179.282 135.967 179.282 136.58 179.282 137.1C179.282 137.62 179.282 137.973 179.282 138.16C179.282 138.373 179.289 138.633 179.302 138.94C179.316 139.247 179.336 139.56 179.362 139.88C179.389 140.187 179.416 140.467 179.442 140.72H176.982C177.036 140.373 177.076 139.96 177.102 139.48C177.129 138.987 177.142 138.547 177.142 138.16ZM178.822 129.58C179.476 129.767 180.209 130 181.022 130.28C181.836 130.547 182.656 130.84 183.482 131.16C184.309 131.467 185.096 131.773 185.842 132.08C186.589 132.387 187.222 132.667 187.742 132.92L186.842 135.1C186.282 134.793 185.649 134.487 184.942 134.18C184.249 133.86 183.536 133.553 182.802 133.26C182.069 132.967 181.356 132.7 180.662 132.46C179.982 132.22 179.369 132.013 178.822 131.84V129.58ZM197.242 139.66H207.442V141.08H197.242V139.66ZM200.642 127.22H202.462V129.54H200.642V127.22ZM193.142 128.72H210.242V132.58H208.382V130.16H194.922V132.58H193.142V128.72ZM197.162 131.24H207.202V135.46H197.162V134.06H205.322V132.64H197.162V131.24ZM197.242 136.64H208.602V141.68H206.722V138.06H197.242V136.64ZM196.122 131.24H197.922V141.7H196.122V131.24ZM194.942 124.58H201.322V126.12H194.942V124.58ZM202.862 124.58H210.802V126.12H202.862V124.58ZM195.182 123L196.962 123.46C196.576 124.353 196.096 125.22 195.522 126.06C194.962 126.887 194.389 127.587 193.802 128.16C193.696 128.053 193.542 127.94 193.342 127.82C193.156 127.687 192.962 127.56 192.762 127.44C192.576 127.307 192.409 127.2 192.262 127.12C192.862 126.613 193.422 125.993 193.942 125.26C194.462 124.527 194.876 123.773 195.182 123ZM203.182 123L204.982 123.44C204.622 124.293 204.149 125.113 203.562 125.9C202.989 126.673 202.389 127.32 201.762 127.84C201.642 127.747 201.482 127.64 201.282 127.52C201.082 127.4 200.876 127.287 200.662 127.18C200.462 127.06 200.282 126.967 200.122 126.9C200.776 126.433 201.369 125.853 201.902 125.16C202.449 124.467 202.876 123.747 203.182 123ZM195.882 125.76L197.502 125.32C197.756 125.667 197.996 126.06 198.222 126.5C198.462 126.927 198.636 127.3 198.742 127.62L197.042 128.12C196.949 127.813 196.789 127.433 196.562 126.98C196.349 126.527 196.122 126.12 195.882 125.76ZM204.562 125.8L206.222 125.32C206.529 125.667 206.836 126.06 207.142 126.5C207.462 126.927 207.696 127.307 207.842 127.64L206.122 128.16C205.976 127.84 205.756 127.46 205.462 127.02C205.169 126.567 204.869 126.16 204.562 125.8ZM222.442 129.32V131.52H229.282V129.32H222.442ZM222.442 125.62V127.8H229.282V125.62H222.442ZM220.722 124H231.082V133.14H220.722V124ZM220.542 135.2H231.342V136.92H220.542V135.2ZM219.062 139.32H232.002V141.04H219.062V139.32ZM213.422 124.38H219.842V126.14H213.422V124.38ZM213.622 130.16H219.542V131.9H213.622V130.16ZM213.202 137.78C213.762 137.633 214.396 137.453 215.102 137.24C215.809 137.027 216.556 136.793 217.342 136.54C218.129 136.287 218.916 136.033 219.702 135.78L220.022 137.58C218.929 137.953 217.822 138.327 216.702 138.7C215.582 139.073 214.569 139.413 213.662 139.72L213.202 137.78ZM215.802 125.08H217.602V137.42L215.802 137.74V125.08ZM225.082 124.74H226.702V132.36H226.842V140.1H224.922V132.36H225.082V124.74ZM258.982 124.04C258.969 124.12 258.949 124.26 258.922 124.46C258.909 124.66 258.896 124.86 258.882 125.06C258.869 125.26 258.862 125.407 258.862 125.5C258.849 125.753 258.836 126.107 258.822 126.56C258.822 127 258.822 127.487 258.822 128.02C258.822 128.553 258.822 129.093 258.822 129.64C258.836 130.173 258.842 130.68 258.842 131.16C258.856 131.627 258.862 132.02 258.862 132.34L256.922 131.54C256.922 131.327 256.922 131.027 256.922 130.64C256.922 130.24 256.916 129.793 256.902 129.3C256.902 128.793 256.896 128.293 256.882 127.8C256.882 127.307 256.876 126.853 256.862 126.44C256.862 126.027 256.856 125.713 256.842 125.5C256.816 125.18 256.782 124.88 256.742 124.6C256.716 124.32 256.696 124.133 256.682 124.04H258.982ZM248.042 126.7C248.616 126.687 249.256 126.673 249.962 126.66C250.682 126.647 251.442 126.633 252.242 126.62C253.042 126.593 253.836 126.573 254.622 126.56C255.422 126.533 256.182 126.52 256.902 126.52C257.622 126.507 258.262 126.5 258.822 126.5C259.396 126.5 259.982 126.5 260.582 126.5C261.182 126.5 261.756 126.5 262.302 126.5C262.849 126.5 263.342 126.5 263.782 126.5C264.236 126.5 264.589 126.5 264.842 126.5L264.802 128.38C264.229 128.353 263.449 128.333 262.462 128.32C261.489 128.293 260.262 128.28 258.782 128.28C257.902 128.28 256.996 128.287 256.062 128.3C255.129 128.313 254.189 128.34 253.242 128.38C252.309 128.407 251.402 128.44 250.522 128.48C249.656 128.52 248.849 128.567 248.102 128.62L248.042 126.7ZM258.682 132.54C258.682 133.527 258.549 134.347 258.282 135C258.029 135.64 257.662 136.127 257.182 136.46C256.702 136.78 256.122 136.94 255.442 136.94C255.029 136.94 254.622 136.867 254.222 136.72C253.836 136.573 253.476 136.353 253.142 136.06C252.822 135.753 252.562 135.387 252.362 134.96C252.176 134.52 252.082 134.02 252.082 133.46C252.082 132.753 252.249 132.133 252.582 131.6C252.929 131.053 253.382 130.627 253.942 130.32C254.516 130.013 255.136 129.86 255.802 129.86C256.629 129.86 257.316 130.047 257.862 130.42C258.422 130.793 258.842 131.3 259.122 131.94C259.402 132.567 259.542 133.28 259.542 134.08C259.542 134.733 259.442 135.413 259.242 136.12C259.042 136.813 258.709 137.487 258.242 138.14C257.776 138.793 257.142 139.393 256.342 139.94C255.556 140.473 254.569 140.913 253.382 141.26L251.682 139.58C252.576 139.393 253.382 139.147 254.102 138.84C254.822 138.52 255.442 138.133 255.962 137.68C256.482 137.213 256.882 136.667 257.162 136.04C257.456 135.4 257.602 134.66 257.602 133.82C257.602 133.02 257.422 132.44 257.062 132.08C256.716 131.72 256.289 131.54 255.782 131.54C255.476 131.54 255.182 131.613 254.902 131.76C254.622 131.907 254.396 132.12 254.222 132.4C254.049 132.68 253.962 133.02 253.962 133.42C253.962 133.98 254.142 134.42 254.502 134.74C254.876 135.047 255.302 135.2 255.782 135.2C256.169 135.2 256.496 135.093 256.762 134.88C257.042 134.653 257.236 134.307 257.342 133.84C257.449 133.36 257.422 132.753 257.262 132.02L258.682 132.54ZM267.898 126.6C268.284 126.587 268.638 126.573 268.958 126.56C269.291 126.533 269.558 126.513 269.758 126.5C270.118 126.46 270.598 126.413 271.198 126.36C271.811 126.293 272.504 126.227 273.278 126.16C274.051 126.093 274.878 126.02 275.758 125.94C276.638 125.86 277.538 125.78 278.458 125.7C279.164 125.647 279.851 125.6 280.518 125.56C281.198 125.507 281.831 125.467 282.418 125.44C283.004 125.4 283.524 125.373 283.978 125.36V127.38C283.604 127.367 283.178 127.367 282.698 127.38C282.231 127.393 281.764 127.42 281.298 127.46C280.844 127.5 280.438 127.567 280.078 127.66C279.424 127.86 278.824 128.173 278.278 128.6C277.731 129.027 277.258 129.52 276.858 130.08C276.471 130.64 276.171 131.233 275.958 131.86C275.758 132.487 275.658 133.093 275.658 133.68C275.658 134.413 275.778 135.053 276.018 135.6C276.271 136.133 276.618 136.593 277.058 136.98C277.498 137.353 278.004 137.667 278.578 137.92C279.151 138.16 279.758 138.34 280.398 138.46C281.051 138.58 281.704 138.653 282.358 138.68L281.638 140.82C280.851 140.78 280.071 140.66 279.298 140.46C278.524 140.273 277.798 140.007 277.118 139.66C276.438 139.3 275.831 138.853 275.298 138.32C274.778 137.787 274.364 137.173 274.058 136.48C273.764 135.787 273.618 135 273.618 134.12C273.618 133.107 273.784 132.173 274.118 131.32C274.464 130.467 274.898 129.727 275.418 129.1C275.938 128.46 276.471 127.967 277.018 127.62C276.618 127.66 276.124 127.713 275.538 127.78C274.951 127.833 274.318 127.9 273.638 127.98C272.971 128.06 272.298 128.147 271.618 128.24C270.938 128.32 270.291 128.407 269.678 128.5C269.078 128.593 268.551 128.687 268.098 128.78L267.898 126.6ZM281.098 129.6C281.258 129.827 281.438 130.107 281.638 130.44C281.838 130.76 282.038 131.093 282.238 131.44C282.438 131.773 282.604 132.08 282.738 132.36L281.498 132.92C281.258 132.413 281.004 131.927 280.738 131.46C280.484 130.993 280.204 130.547 279.898 130.12L281.098 129.6ZM283.318 128.74C283.478 128.967 283.664 129.24 283.878 129.56C284.091 129.867 284.298 130.187 284.498 130.52C284.698 130.853 284.871 131.167 285.018 131.46L283.798 132.04C283.531 131.533 283.264 131.06 282.998 130.62C282.731 130.167 282.438 129.72 282.118 129.28L283.318 128.74ZM295.438 126.28C296.024 126.373 296.684 126.44 297.418 126.48C298.164 126.52 298.931 126.533 299.718 126.52C300.504 126.507 301.258 126.48 301.978 126.44C302.698 126.4 303.318 126.347 303.838 126.28V128.32C303.264 128.373 302.618 128.42 301.898 128.46C301.178 128.487 300.431 128.5 299.658 128.5C298.898 128.5 298.151 128.487 297.418 128.46C296.684 128.42 296.031 128.373 295.458 128.32L295.438 126.28ZM296.578 134.6C296.498 134.947 296.431 135.26 296.378 135.54C296.338 135.82 296.318 136.1 296.318 136.38C296.318 136.607 296.364 136.82 296.458 137.02C296.564 137.22 296.731 137.393 296.958 137.54C297.198 137.687 297.518 137.807 297.918 137.9C298.331 137.98 298.838 138.02 299.438 138.02C300.344 138.02 301.191 137.98 301.978 137.9C302.778 137.807 303.591 137.667 304.418 137.48L304.458 139.62C303.831 139.74 303.098 139.84 302.258 139.92C301.431 139.987 300.478 140.02 299.398 140.02C297.704 140.02 296.451 139.747 295.638 139.2C294.838 138.64 294.438 137.873 294.438 136.9C294.438 136.54 294.464 136.167 294.518 135.78C294.571 135.38 294.658 134.933 294.778 134.44L296.578 134.6ZM291.958 124.84C291.918 124.96 291.864 125.12 291.798 125.32C291.744 125.507 291.691 125.7 291.638 125.9C291.598 126.087 291.564 126.24 291.538 126.36C291.471 126.693 291.391 127.1 291.298 127.58C291.218 128.047 291.131 128.56 291.038 129.12C290.958 129.667 290.878 130.227 290.798 130.8C290.731 131.36 290.671 131.907 290.618 132.44C290.578 132.973 290.558 133.46 290.558 133.9C290.558 134.247 290.564 134.6 290.578 134.96C290.604 135.307 290.638 135.667 290.678 136.04C290.798 135.773 290.918 135.493 291.038 135.2C291.158 134.893 291.278 134.593 291.398 134.3C291.518 134.007 291.631 133.74 291.738 133.5L292.738 134.3C292.564 134.793 292.378 135.34 292.178 135.94C291.978 136.54 291.798 137.113 291.638 137.66C291.491 138.193 291.384 138.627 291.318 138.96C291.291 139.093 291.264 139.253 291.238 139.44C291.211 139.613 291.204 139.76 291.218 139.88C291.218 139.973 291.218 140.087 291.218 140.22C291.231 140.367 291.244 140.5 291.258 140.62L289.438 140.74C289.238 140.047 289.064 139.133 288.918 138C288.771 136.867 288.698 135.627 288.698 134.28C288.698 133.533 288.731 132.78 288.798 132.02C288.864 131.247 288.944 130.5 289.038 129.78C289.131 129.06 289.224 128.4 289.318 127.8C289.424 127.2 289.504 126.7 289.558 126.3C289.598 126.047 289.631 125.773 289.658 125.48C289.698 125.187 289.724 124.907 289.738 124.64L291.958 124.84Z" fill="#022732"/>
<path d="M238.902 141.22C238.489 140.713 238.029 140.193 237.522 139.66C237.029 139.127 236.522 138.613 236.002 138.12C235.496 137.627 235.009 137.187 234.542 136.8L236.182 135.36C236.662 135.747 237.169 136.2 237.702 136.72C238.236 137.227 238.756 137.753 239.262 138.3C239.782 138.833 240.229 139.327 240.602 139.78L238.902 141.22Z" fill="black"/>
<path d="M470.809 112.174H500.423V115.268H470.809V112.174ZM476.011 127.95H496.071V130.942H476.011V127.95ZM476.317 118.532H498.009V132.914H494.745V121.524H476.317V118.532ZM474.073 118.532H477.337V126.182C477.337 127.383 477.269 128.687 477.133 130.092C476.997 131.497 476.736 132.914 476.351 134.342C475.988 135.747 475.455 137.119 474.753 138.456C474.073 139.771 473.166 140.961 472.033 142.026C471.874 141.777 471.636 141.505 471.319 141.21C471.024 140.915 470.707 140.632 470.367 140.36C470.049 140.088 469.766 139.895 469.517 139.782C470.537 138.785 471.353 137.719 471.965 136.586C472.577 135.453 473.03 134.285 473.325 133.084C473.619 131.883 473.812 130.693 473.903 129.514C474.016 128.335 474.073 127.213 474.073 126.148V118.532ZM507.155 116.22C507.812 116.197 508.413 116.175 508.957 116.152C509.523 116.107 509.977 116.073 510.317 116.05C510.929 115.982 511.745 115.903 512.765 115.812C513.807 115.699 514.986 115.585 516.301 115.472C517.615 115.359 519.021 115.234 520.517 115.098C522.013 114.962 523.543 114.826 525.107 114.69C526.308 114.599 527.475 114.52 528.609 114.452C529.765 114.361 530.841 114.293 531.839 114.248C532.836 114.18 533.72 114.135 534.491 114.112V117.546C533.856 117.523 533.131 117.523 532.315 117.546C531.521 117.569 530.728 117.614 529.935 117.682C529.164 117.75 528.473 117.863 527.861 118.022C526.75 118.362 525.73 118.895 524.801 119.62C523.871 120.345 523.067 121.184 522.387 122.136C521.729 123.088 521.219 124.097 520.857 125.162C520.517 126.227 520.347 127.259 520.347 128.256C520.347 129.503 520.551 130.591 520.959 131.52C521.389 132.427 521.979 133.209 522.727 133.866C523.475 134.501 524.336 135.033 525.311 135.464C526.285 135.872 527.317 136.178 528.405 136.382C529.515 136.586 530.626 136.711 531.737 136.756L530.513 140.394C529.175 140.326 527.849 140.122 526.535 139.782C525.22 139.465 523.985 139.011 522.829 138.422C521.673 137.81 520.641 137.051 519.735 136.144C518.851 135.237 518.148 134.195 517.627 133.016C517.128 131.837 516.879 130.5 516.879 129.004C516.879 127.281 517.162 125.695 517.729 124.244C518.318 122.793 519.055 121.535 519.939 120.47C520.823 119.382 521.729 118.543 522.659 117.954C521.979 118.022 521.14 118.113 520.143 118.226C519.145 118.317 518.069 118.43 516.913 118.566C515.779 118.702 514.635 118.849 513.479 119.008C512.323 119.144 511.223 119.291 510.181 119.45C509.161 119.609 508.265 119.767 507.495 119.926L507.155 116.22ZM529.595 121.32C529.867 121.705 530.173 122.181 530.513 122.748C530.853 123.292 531.193 123.859 531.533 124.448C531.873 125.015 532.156 125.536 532.383 126.012L530.275 126.964C529.867 126.103 529.436 125.275 528.983 124.482C528.552 123.689 528.076 122.929 527.555 122.204L529.595 121.32ZM533.369 119.858C533.641 120.243 533.958 120.708 534.321 121.252C534.683 121.773 535.035 122.317 535.375 122.884C535.715 123.451 536.009 123.983 536.259 124.482L534.185 125.468C533.731 124.607 533.278 123.802 532.825 123.054C532.371 122.283 531.873 121.524 531.329 120.776L533.369 119.858ZM555.945 110.338H559.277V115.472H555.945V110.338ZM543.195 113.5H572.095V120.402H568.763V116.322H546.357V120.402H543.195V113.5ZM546.119 119.756H569.409V122.374H546.119V119.756ZM542.787 130.398H572.707V133.186H542.787V130.398ZM546.663 124.992H568.865V127.644H546.663V124.992ZM559.515 131.01C560.557 133.322 562.212 135.147 564.479 136.484C566.768 137.821 569.647 138.705 573.115 139.136C572.797 139.453 572.446 139.895 572.061 140.462C571.698 141.029 571.403 141.527 571.177 141.958C568.706 141.527 566.53 140.87 564.649 139.986C562.767 139.125 561.169 138.003 559.855 136.62C558.54 135.237 557.463 133.583 556.625 131.656L559.515 131.01ZM555.877 117.308H559.141V126.216C559.141 127.372 559.027 128.539 558.801 129.718C558.597 130.897 558.2 132.053 557.611 133.186C557.021 134.319 556.171 135.407 555.061 136.45C553.95 137.493 552.511 138.467 550.743 139.374C548.997 140.281 546.844 141.108 544.283 141.856C544.169 141.629 543.999 141.357 543.773 141.04C543.546 140.723 543.297 140.405 543.025 140.088C542.775 139.771 542.537 139.499 542.311 139.272C544.781 138.637 546.833 137.935 548.465 137.164C550.119 136.371 551.434 135.543 552.409 134.682C553.406 133.798 554.154 132.88 554.653 131.928C555.151 130.976 555.48 130.013 555.639 129.038C555.797 128.063 555.877 127.1 555.877 126.148V117.308ZM578.249 112.072H590.047V115.03H578.249V112.072ZM578.589 121.728H589.707V124.686H578.589V121.728ZM577.535 133.696C578.6 133.447 579.824 133.141 581.207 132.778C582.589 132.415 584.051 132.019 585.593 131.588C587.157 131.157 588.698 130.727 590.217 130.296L590.659 133.152C588.528 133.787 586.375 134.421 584.199 135.056C582.023 135.691 580.073 136.269 578.351 136.79L577.535 133.696ZM594.535 119.722V122.578H604.701V119.722H594.535ZM594.535 125.06V127.95H604.701V125.06H594.535ZM594.535 114.35V117.206H604.701V114.35H594.535ZM591.509 111.698H607.829V130.636H591.509V111.698ZM600.281 129.378H603.375V137.844C603.375 138.297 603.42 138.581 603.511 138.694C603.624 138.807 603.862 138.864 604.225 138.864C604.315 138.864 604.497 138.864 604.769 138.864C605.063 138.864 605.358 138.864 605.653 138.864C605.97 138.864 606.197 138.864 606.333 138.864C606.559 138.864 606.729 138.773 606.843 138.592C606.979 138.411 607.069 138.037 607.115 137.47C607.183 136.903 607.228 136.042 607.251 134.886C607.477 135.045 607.749 135.203 608.067 135.362C608.384 135.521 608.713 135.668 609.053 135.804C609.393 135.917 609.699 136.008 609.971 136.076C609.88 137.549 609.721 138.683 609.495 139.476C609.268 140.292 608.928 140.859 608.475 141.176C608.021 141.493 607.421 141.652 606.673 141.652C606.537 141.652 606.333 141.652 606.061 141.652C605.789 141.652 605.494 141.652 605.177 141.652C604.859 141.652 604.565 141.652 604.293 141.652C604.021 141.652 603.817 141.652 603.681 141.652C602.751 141.652 602.037 141.539 601.539 141.312C601.063 141.085 600.734 140.689 600.553 140.122C600.371 139.578 600.281 138.819 600.281 137.844V129.378ZM594.399 130.092H597.561C597.402 131.543 597.153 132.88 596.813 134.104C596.495 135.328 595.997 136.439 595.317 137.436C594.659 138.433 593.753 139.317 592.597 140.088C591.441 140.859 589.967 141.527 588.177 142.094C588.063 141.822 587.905 141.516 587.701 141.176C587.519 140.859 587.304 140.541 587.055 140.224C586.828 139.907 586.601 139.646 586.375 139.442C587.961 139.011 589.253 138.501 590.251 137.912C591.248 137.323 592.019 136.643 592.563 135.872C593.129 135.079 593.549 134.206 593.821 133.254C594.093 132.279 594.285 131.225 594.399 130.092ZM582.703 113.262H585.797V133.254L582.703 133.764V113.262ZM618.045 129.6L617.405 113.64L617.245 108.84H621.925L621.805 113.64L621.125 129.6H618.045ZM619.565 139.56C618.711 139.56 617.991 139.253 617.405 138.64C616.818 138 616.525 137.213 616.525 136.28C616.525 135.32 616.818 134.547 617.405 133.96C617.991 133.347 618.711 133.04 619.565 133.04C620.471 133.04 621.218 133.347 621.805 133.96C622.391 134.547 622.685 135.32 622.685 136.28C622.685 137.213 622.391 138 621.805 138.64C621.218 139.253 620.471 139.56 619.565 139.56Z" fill="#03A8D6"/>
<path d="M337.733 130.78C337.44 132.027 336.505 135.767 334.928 142H310.013L309.573 141.01C310.27 139.03 311.26 137.105 312.543 135.235C313.863 133.328 315.183 131.642 316.503 130.175C317.86 128.672 319.62 126.783 321.783 124.51C323.763 122.42 325.266 120.715 326.293 119.395C327.356 118.038 328.163 116.682 328.713 115.325C329.3 113.932 329.593 112.392 329.593 110.705C329.593 108.322 328.951 106.433 327.668 105.04C326.421 103.647 324.625 102.95 322.278 102.95C320.591 102.95 319.161 103.317 317.988 104.05C316.815 104.747 316.228 105.7 316.228 106.91C316.228 107.423 316.338 107.845 316.558 108.175C316.778 108.505 317.108 108.89 317.548 109.33C318.025 109.807 318.373 110.247 318.593 110.65C318.85 111.017 318.978 111.512 318.978 112.135C318.978 113.272 318.593 114.17 317.823 114.83C317.09 115.49 316.155 115.82 315.018 115.82C314.431 115.82 313.808 115.618 313.148 115.215C312.525 114.812 311.993 114.243 311.553 113.51C311.15 112.74 310.948 111.842 310.948 110.815C310.948 109.238 311.461 107.698 312.488 106.195C313.515 104.655 314.981 103.408 316.888 102.455C318.795 101.465 320.995 100.97 323.488 100.97C326.275 100.97 328.676 101.447 330.693 102.4C332.746 103.353 334.286 104.655 335.313 106.305C336.376 107.955 336.908 109.825 336.908 111.915C336.908 113.858 336.505 115.545 335.698 116.975C334.891 118.405 333.865 119.633 332.618 120.66C331.408 121.65 329.721 122.86 327.558 124.29C326.018 125.317 324.845 126.123 324.038 126.71C320.555 129.167 317.53 132.338 314.963 136.225H323.213C326.183 136.225 328.456 136.078 330.033 135.785C331.646 135.455 332.93 134.868 333.883 134.025C334.836 133.182 335.735 131.88 336.578 130.12C336.615 129.937 336.743 129.845 336.963 129.845C337.036 129.845 337.146 129.882 337.293 129.955C337.476 130.028 337.605 130.102 337.678 130.175C337.788 130.212 337.843 130.285 337.843 130.395C337.843 130.468 337.806 130.597 337.733 130.78ZM347.426 148.875C347.316 148.875 347.206 148.82 347.096 148.71C347.022 148.6 346.986 148.508 346.986 148.435C346.986 148.362 347.041 148.27 347.151 148.16C347.994 147.427 348.636 146.693 349.076 145.96C349.516 145.227 349.736 144.585 349.736 144.035C349.736 143.265 349.406 142.733 348.746 142.44C347.976 142.073 347.371 141.633 346.931 141.12C346.491 140.57 346.271 139.892 346.271 139.085C346.271 138.022 346.637 137.123 347.371 136.39C348.104 135.62 349.002 135.235 350.066 135.235C351.129 135.235 352.027 135.62 352.761 136.39C353.494 137.123 353.861 138.058 353.861 139.195C353.861 141.358 353.219 143.283 351.936 144.97C350.689 146.693 349.259 147.977 347.646 148.82L347.426 148.875ZM372.422 142.715C369.965 142.715 367.618 141.927 365.382 140.35C363.145 138.773 361.33 136.408 359.937 133.255C358.543 130.102 357.847 126.288 357.847 121.815C357.847 117.342 358.543 113.528 359.937 110.375C361.367 107.222 363.2 104.857 365.437 103.28C367.673 101.703 370.002 100.915 372.422 100.915C374.878 100.915 377.225 101.703 379.462 103.28C381.698 104.857 383.513 107.222 384.907 110.375C386.337 113.528 387.052 117.342 387.052 121.815C387.052 126.288 386.337 130.102 384.907 133.255C383.513 136.408 381.698 138.773 379.462 140.35C377.225 141.927 374.878 142.715 372.422 142.715ZM372.422 140.79C374.805 140.79 376.62 139.232 377.867 136.115C379.15 132.962 379.792 128.195 379.792 121.815C379.792 115.435 379.15 110.687 377.867 107.57C376.62 104.453 374.805 102.895 372.422 102.895C370.038 102.895 368.205 104.453 366.922 107.57C365.675 110.687 365.052 115.435 365.052 121.815C365.052 128.195 365.675 132.962 366.922 136.115C368.205 139.232 370.038 140.79 372.422 140.79ZM409.882 142.715C407.425 142.715 405.078 141.927 402.842 140.35C400.605 138.773 398.79 136.408 397.397 133.255C396.003 130.102 395.307 126.288 395.307 121.815C395.307 117.342 396.003 113.528 397.397 110.375C398.827 107.222 400.66 104.857 402.897 103.28C405.133 101.703 407.462 100.915 409.882 100.915C412.338 100.915 414.685 101.703 416.922 103.28C419.158 104.857 420.973 107.222 422.367 110.375C423.797 113.528 424.512 117.342 424.512 121.815C424.512 126.288 423.797 130.102 422.367 133.255C420.973 136.408 419.158 138.773 416.922 140.35C414.685 141.927 412.338 142.715 409.882 142.715ZM409.882 140.79C412.265 140.79 414.08 139.232 415.327 136.115C416.61 132.962 417.252 128.195 417.252 121.815C417.252 115.435 416.61 110.687 415.327 107.57C414.08 104.453 412.265 102.895 409.882 102.895C407.498 102.895 405.665 104.453 404.382 107.57C403.135 110.687 402.512 115.435 402.512 121.815C402.512 128.195 403.135 132.962 404.382 136.115C405.665 139.232 407.498 140.79 409.882 140.79ZM447.342 142.715C444.885 142.715 442.539 141.927 440.302 140.35C438.065 138.773 436.25 136.408 434.857 133.255C433.464 130.102 432.767 126.288 432.767 121.815C432.767 117.342 433.464 113.528 434.857 110.375C436.287 107.222 438.12 104.857 440.357 103.28C442.594 101.703 444.922 100.915 447.342 100.915C449.799 100.915 452.145 101.703 454.382 103.28C456.619 104.857 458.434 107.222 459.827 110.375C461.257 113.528 461.972 117.342 461.972 121.815C461.972 126.288 461.257 130.102 459.827 133.255C458.434 136.408 456.619 138.773 454.382 140.35C452.145 141.927 449.799 142.715 447.342 142.715ZM447.342 140.79C449.725 140.79 451.54 139.232 452.787 136.115C454.07 132.962 454.712 128.195 454.712 121.815C454.712 115.435 454.07 110.687 452.787 107.57C451.54 104.453 449.725 102.895 447.342 102.895C444.959 102.895 443.125 104.453 441.842 107.57C440.595 110.687 439.972 115.435 439.972 121.815C439.972 128.195 440.595 132.962 441.842 136.115C443.125 139.232 444.959 140.79 447.342 140.79Z" fill="#03A8D6"/>
</svg>
