<svg width="297" height="52" viewBox="0 0 297 52" fill="none" xmlns="http://www.w3.org/2000/svg">
<path d="M42.9636 0.181641H18.213C17.6286 0.181641 17.1533 0.64868 17.1533 1.22301V26.8218H20.8396V4.37869C20.8396 3.88009 21.2506 3.46985 21.7644 3.46985H39.5985C40.1058 3.46985 40.5232 3.87378 40.5232 4.37869V37.5953C40.5232 38.2832 39.9517 38.845 39.2517 38.845H32.3544V48.8421H42.771C43.5673 48.8421 44.2095 48.2047 44.2095 47.4284V1.22301C44.2095 0.64868 43.7343 0.181641 43.1499 0.181641H42.9636Z" fill="#008CB3"/>
<path d="M19.2657 22.126L5.86279 32.3314V35.607L19.2657 27.3328V22.126Z" fill="#008CB3"/>
<path d="M5.86279 45.4279V48.653L19.2657 48.8424V43.3389L5.86279 45.4279Z" fill="#008CB3"/>
<path d="M19.2657 38.239V32.7607L5.86279 38.9964V42.3477L19.2657 38.239Z" fill="#008CB3"/>
<path d="M32.3546 35.5375V32.344L19.2857 22.1133L19.2793 27.3265L32.3546 35.5375Z" fill="#B5B5B6"/>
<path d="M19.2676 48.8424H32.3622V45.6993L19.2676 43.3389V48.8424Z" fill="#B5B5B6"/>
<path d="M19.2676 32.7539V38.2385L32.3558 42.1452V38.8444L19.2676 32.7539Z" fill="#B5B5B6"/>
<path d="M57.8353 41.7485C57.1224 39.306 51.7921 37.4694 44.3618 36.6426L44.3875 36.8382C49.8077 37.5325 53.5582 38.8263 54.0527 40.5177C54.5857 42.348 51.1884 44.2541 45.4471 45.7435C45.3636 45.7625 45.293 45.7877 45.2095 45.8067C44.2269 46.0591 43.1801 46.2926 42.0755 46.5198C41.0608 46.7281 40.0012 46.9175 38.8902 47.1005C35.814 47.5991 32.4039 47.9967 28.7754 48.2492C21.846 48.7288 15.3597 48.5963 10.3119 47.9967C9.08533 47.8515 7.94862 47.6748 6.90825 47.4729C3.63941 46.848 1.34031 45.9707 0.441217 44.8978C0.409106 45.1692 0.42195 45.4406 0.499015 45.712C0.942138 47.233 3.17702 48.5205 6.6321 49.4799C7.65321 49.7639 8.78349 50.0163 10.0037 50.2372C15.623 51.2597 23.1946 51.6194 31.3057 51.0577C35.3516 50.78 39.1342 50.3003 42.5058 49.6692C43.681 49.4483 44.8177 49.2148 45.8838 48.9623C53.7637 47.1068 58.5995 44.4055 57.8289 41.7548L57.8353 41.7485Z" fill="#008CB3"/>
<path d="M279.341 16.1251H282.732V19.2808C282.058 21.3888 281.338 23.2127 280.568 24.7653C282.302 27.069 283.67 28.9119 284.684 30.2814L282.52 32.5409C281.313 30.9441 280.234 29.3032 279.271 27.6181V41.0486H276.059V30.0479C275.385 31.266 274.281 32.2948 272.739 33.1405L271.981 29.4483C275.424 26.8986 277.819 23.5094 279.168 19.2745H272.746V16.1188H276.137V11.1328H279.348V16.1188L279.341 16.1251ZM291.742 36.8011H296.617V39.9946H282.173V36.8011H288.454V20.947H283.618V17.8544H288.454V11.4042H291.736V17.8544H296.212V20.947H291.736V36.8011H291.742Z" fill="#605F5F"/>
<path d="M80.306 11.4541C80.0298 12.6785 79.7216 13.9471 79.3748 15.2662H91.9107V19.9618C91.6345 23.0165 90.9538 25.7114 89.8556 28.0466C88.7638 30.3818 87.4409 32.3005 85.8996 33.8026C84.3583 35.3047 82.7785 36.5165 81.1601 37.4316C79.5417 38.3468 78.0261 39.0789 76.6069 39.6343C75.1876 40.1834 73.9353 40.5936 72.8371 40.865V36.7563C74.3784 36.2893 75.8812 35.7086 77.3518 35.0144C78.8161 34.3201 80.3445 33.2914 81.9243 31.9344C83.5042 30.5775 84.8335 28.9492 85.9189 27.0368C86.9978 25.1308 87.6528 22.4926 87.8776 19.1161H77.7693C76.1766 21.6343 74.7316 23.5214 73.4215 24.7837C72.1178 26.0396 71.0004 26.9674 70.082 27.5543V22.4926C70.9297 21.7353 71.7646 20.7949 72.5995 19.6715C73.4344 18.5481 74.1665 17.2858 74.8023 15.8973C75.438 14.5025 75.9004 13.0256 76.2023 11.4604H80.306V11.4541Z" fill="#605F5F"/>
<path d="M98.1108 25.465V21.6151H120.498C120.498 24.228 120.061 26.6516 119.194 28.8731C118.321 31.0947 117.088 32.9187 115.483 34.3388C113.877 35.7588 112.239 36.8507 110.557 37.6207C108.881 38.3907 107.282 38.9461 105.766 39.2869C104.25 39.6277 102.844 39.8991 101.553 40.0947V35.9545C102.696 35.8346 103.897 35.6074 105.156 35.2792C106.415 34.951 107.744 34.4461 109.15 33.7771C110.557 33.1081 111.925 32.0856 113.254 30.7161C114.583 29.3465 115.476 27.5983 115.919 25.4713H98.1237L98.1108 25.465ZM99.1512 16.6228V12.8486H118.848V16.6228H99.1512Z" fill="#605F5F"/>
<path d="M127.061 30.4512V16.3705H135.904V11.6055H139.86V16.3705H148.998V21.3565C148.947 24.4112 148.498 27.0998 147.656 29.4224C146.809 31.745 145.71 33.5563 144.355 34.8502C143 36.144 141.53 37.2043 139.95 38.0185C138.37 38.8389 136.912 39.4511 135.564 39.8487C134.221 40.2527 133.014 40.5241 131.941 40.6755V36.8256C133.386 36.5795 134.806 36.1755 136.212 35.6138C137.619 35.0521 139.044 34.1938 140.483 33.0451C141.928 31.8965 143.032 30.3628 143.803 28.4441C144.574 26.5255 144.972 24.1209 144.998 21.2366V20.1763H131.004V30.4448H127.048L127.061 30.4512Z" fill="#605F5F"/>
<path d="M156.569 40.5677V11.5986H160.75V21.5706H173.748V25.5656H160.75V40.5614H156.569V40.5677ZM165.188 16.957V11.6744H167.763V16.957H165.188ZM169.214 16.957V11.6744H171.79V16.957H169.214Z" fill="#605F5F"/>
<path d="M229.254 37.1345V33.4803H235.753V30.7538H229.254V27.4277H235.393V11.8008H219.89V27.4277H226.075V30.7538H219.89V33.4803H226.055H226.081V37.1345H218.574V40.0567H236.151V37.1345H229.254ZM229.254 14.6283H232.253V18.2825H229.254V14.6283ZM229.254 20.8449H232.253V24.7012H229.254V20.8449ZM226.075 24.7012H222.973V20.8449H226.075V24.7012ZM226.075 18.2888H222.973V14.6346H226.075V18.2888Z" fill="#605F5F"/>
<path d="M211.067 16.1244H213.558V22.7072H211.317V25.7682H213.558V34.2443C212.351 34.7303 211.465 35.0395 210.887 35.1721L211.246 38.2331C213.745 37.4378 216.615 36.6047 218.548 35.7338V32.4708C218.105 32.7485 217.045 32.9947 216.769 33.184V25.7682H218.548V22.7072H216.769V16.1244H218.548V12.9688H211.067V16.1244Z" fill="#605F5F"/>
<path d="M193.754 15.4613V12.5392H187.717C187.936 11.7439 188.115 11.1885 188.257 10.8793L185.187 10.1787C184.365 12.6401 182.997 14.9122 181.07 16.995L183.273 19.2544C184.455 18.1247 185.412 16.8624 186.163 15.4613H186.78C187.139 16.7488 187.524 17.9858 187.936 19.185L191.005 18.2194C190.498 16.6478 190.235 15.7264 190.209 15.4613H193.76H193.754Z" fill="#605F5F"/>
<path d="M205.565 15.4613V12.5392H199.528C199.747 11.7439 199.927 11.1885 200.068 10.8793L196.998 10.1787C196.176 12.6401 194.808 14.9122 193.787 15.941L195.99 18.2004C196.266 18.1247 197.229 16.8624 197.974 15.4613H198.591C198.95 16.7488 199.336 17.9858 199.747 19.185L202.817 18.2194C202.309 16.6478 202.046 15.7264 202.02 15.4613H205.572H205.565Z" fill="#605F5F"/>
<path d="M188.617 30.817H201.326V23.7041H185.367V41.054H188.617V39.7223H199.554V41.054H202.835V32.3443H188.61V30.817H188.617ZM188.617 26.4306H198.038V28.1599H188.617V26.4306ZM199.554 35.0772V37.0715H188.617V35.0772H199.554Z" fill="#605F5F"/>
<path d="M195.047 17.6016H191.759V19.6149H181.94V26.4311H185.151V22.3793H201.508V26.4311H204.719V19.6149H195.047V17.6016Z" fill="#605F5F"/>
<path d="M258.605 31.6827C259.279 33.0333 259.819 34.2955 260.23 35.4695C257.128 36.0249 254.154 36.4477 251.309 36.7317C252.151 34.3145 252.896 31.9351 253.551 29.5873H265.393V26.5957H243.372V29.5873H250.089C249.415 31.9351 248.599 34.4092 247.636 37.0031C246.987 37.0662 245.773 37.1483 243.988 37.2366L244.168 40.2282C249.749 40.0073 255.554 39.3446 261.572 38.2338C261.642 38.6125 261.822 39.149 262.111 39.8432C262.4 40.5438 262.644 41.0361 262.837 41.3201L265.65 39.9568C264.205 36.5424 262.798 33.3299 261.424 30.3194L258.605 31.6827Z" fill="#605F5F"/>
<path d="M254.378 13.3982C256.337 16.0048 263.985 22.7516 265.276 23.5027L266.651 20.5427C262.727 17.772 259.24 14.6163 256.183 11.0693H252.573C249.517 14.6352 246.029 17.7972 242.105 20.5427L243.48 23.5027C244.758 22.758 252.426 16.0048 254.384 13.3982H254.378Z" fill="#605F5F"/>
<path d="M261.139 20.8389H247.64V23.9314H261.139V20.8389Z" fill="#605F5F"/>
</svg>
