<svg width="225" height="39" viewBox="0 0 225 39" fill="none" xmlns="http://www.w3.org/2000/svg">
<path d="M32.3138 0H13.512C13.068 0 12.707 0.354785 12.707 0.791076V20.2372H15.5073V3.18827C15.5073 2.80952 15.8195 2.49788 16.2098 2.49788H29.7574C30.1428 2.49788 30.4599 2.80472 30.4599 3.18827V28.4212C30.4599 28.9438 30.0257 29.3705 29.494 29.3705H24.2545V36.9648H32.1674C32.7723 36.9648 33.2602 36.4806 33.2602 35.8909V0.791076C33.2602 0.354785 32.8992 0 32.4552 0H32.3138Z" fill="#008CB3"/>
<path d="M14.3123 16.6699L4.13086 24.4225V26.9108L14.3123 20.6253V16.6699Z" fill="#008CB3"/>
<path d="M4.13086 34.3711V36.8211L14.3123 36.9649V32.7842L4.13086 34.3711Z" fill="#008CB3"/>
<path d="M14.3123 28.9106V24.749L4.13086 29.4859V32.0317L14.3123 28.9106Z" fill="#008CB3"/>
<path d="M24.2549 26.8583V24.4324L14.3271 16.6606L14.3223 20.6208L24.2549 26.8583Z" fill="#B5B5B6"/>
<path d="M14.3125 36.9649H24.2598V34.5773L14.3125 32.7842V36.9649Z" fill="#B5B5B6"/>
<path d="M14.3125 24.7437V28.91L24.2549 31.8777V29.3702L14.3125 24.7437Z" fill="#B5B5B6"/>
<path d="M43.6117 31.5759C43.0702 29.7205 39.021 28.3253 33.3766 27.6973L33.3961 27.8459C37.5136 28.3733 40.3626 29.3561 40.7383 30.641C41.1432 32.0314 38.5625 33.4793 34.2011 34.6108C34.1376 34.6252 34.084 34.6443 34.0206 34.6587C33.2742 34.8505 32.479 35.0279 31.6398 35.2005C30.869 35.3587 30.0641 35.5025 29.2201 35.6416C26.8833 36.0203 24.2928 36.3224 21.5365 36.5142C16.2725 36.8785 11.3452 36.7779 7.51074 36.3224C6.57894 36.2121 5.71545 36.0779 4.92513 35.9245C2.44197 35.4498 0.695459 34.7834 0.0124673 33.9683C-0.0119252 34.1745 -0.00216823 34.3807 0.0563739 34.5868C0.392991 35.7423 2.09071 36.7203 4.71535 37.4491C5.49103 37.6648 6.34965 37.8566 7.27657 38.0244C11.5453 38.8011 17.297 39.0744 23.4586 38.6477C26.532 38.4367 29.4055 38.0723 31.9667 37.5929C32.8595 37.4251 33.723 37.2477 34.5328 37.0559C40.5187 35.6464 44.1923 33.5944 43.6068 31.5807L43.6117 31.5759Z" fill="#008CB3"/>
<path d="M211.878 12.1107H214.454V14.5079C213.941 16.1093 213.395 17.4948 212.81 18.6743C214.127 20.4242 215.166 21.8242 215.937 22.8646L214.293 24.581C213.376 23.368 212.556 22.1214 211.824 20.8413V31.0438H209.385V22.6872C208.873 23.6125 208.034 24.394 206.863 25.0364L206.287 22.2317C208.902 20.2948 210.722 17.7202 211.746 14.5031H206.868V12.1059H209.444V8.31836H211.883V12.1059L211.878 12.1107ZM221.298 27.8172H225.001V30.2431H214.029V27.8172H218.8V15.7736H215.127V13.4244H218.8V8.52452H221.293V13.4244H224.694V15.7736H221.293V27.8172H221.298Z" fill="#605F5F"/>
<path d="M60.6826 8.56299C60.4728 9.4931 60.2387 10.4568 59.9752 11.4588H69.4981V15.0258C69.2883 17.3463 68.7712 19.3935 67.9369 21.1675C67.1076 22.9414 66.1026 24.3989 64.9318 25.5399C63.7609 26.681 62.5608 27.6015 61.3314 28.2967C60.1021 28.9919 58.9507 29.5481 57.8726 29.97C56.7944 30.3871 55.8431 30.6987 55.0089 30.9049V27.7837C56.1797 27.4289 57.3213 26.9879 58.4385 26.4605C59.5508 25.9331 60.7119 25.1516 61.912 24.1208C63.1121 23.09 64.122 21.8531 64.9464 20.4004C65.766 18.9524 66.2636 16.9484 66.4344 14.3834H58.7556C57.5457 16.2964 56.4481 17.7299 55.4528 18.6888C54.4625 19.6428 53.6136 20.3476 52.916 20.7935V16.9484C53.56 16.3731 54.1942 15.6587 54.8284 14.8053C55.4626 13.9519 56.0187 12.993 56.5017 11.9382C56.9847 10.8787 57.3359 9.75679 57.5652 8.56778H60.6826V8.56299Z" fill="#605F5F"/>
<path d="M74.207 19.2066V16.282H91.2135C91.2135 18.2669 90.8818 20.1079 90.2232 21.7955C89.5597 23.4832 88.623 24.8687 87.4034 25.9475C86.1838 27.0262 84.9397 27.8557 83.6616 28.4406C82.3883 29.0255 81.1735 29.4474 80.0222 29.7063C78.8709 29.9652 77.8025 30.1713 76.8219 30.32V27.1749C77.6903 27.0838 78.6026 26.9112 79.5588 26.6618C80.5149 26.4125 81.5248 26.029 82.5932 25.5208C83.6616 25.0126 84.7007 24.2359 85.7106 23.1955C86.7204 22.1551 87.3985 20.8271 87.7351 19.2114H74.2168L74.207 19.2066ZM74.9973 12.4896V9.62256H89.9597V12.4896H74.9973Z" fill="#605F5F"/>
<path d="M96.1992 22.9943V12.298H102.917V8.67822H105.922V12.298H112.864V16.0856C112.825 18.4061 112.484 20.4485 111.845 22.2128C111.201 23.9771 110.366 25.3531 109.337 26.336C108.308 27.3188 107.19 28.1243 105.99 28.7428C104.79 29.366 103.683 29.8311 102.658 30.1332C101.639 30.44 100.722 30.6462 99.9069 30.7612V27.8366C101.005 27.6497 102.083 27.3428 103.151 26.9161C104.219 26.4894 105.303 25.8374 106.395 24.9648C107.493 24.0922 108.332 22.9272 108.917 21.4697C109.503 20.0122 109.805 18.1855 109.825 15.9945V15.189H99.1946V22.9895H96.1895L96.1992 22.9943Z" fill="#605F5F"/>
<path d="M118.615 30.6796V8.67334H121.791V16.2485H131.665V19.2833H121.791V30.6748H118.615V30.6796ZM125.162 12.7438V8.73087H127.118V12.7438H125.162ZM128.221 12.7438V8.73087H130.177V12.7438H128.221Z" fill="#605F5F"/>
<path d="M173.83 28.0714V25.2954H178.767V23.2242H173.83V20.6976H178.494V8.82666H166.717V20.6976H171.415V23.2242H166.717V25.2954H171.4H171.42V28.0714H165.717V30.2912H179.069V28.0714H173.83ZM173.83 10.9746H176.108V13.7505H173.83V10.9746ZM173.83 15.697H176.108V18.6264H173.83V15.697ZM171.415 18.6264H169.059V15.697H171.415V18.6264ZM171.415 13.7553H169.059V10.9793H171.415V13.7553Z" fill="#605F5F"/>
<path d="M160.014 12.1111H161.906V17.1116H160.204V19.4369H161.906V25.8758C160.989 26.2449 160.316 26.4799 159.877 26.5806L160.15 28.9058C162.048 28.3017 164.229 27.6689 165.697 27.0073V24.5286C165.36 24.7395 164.555 24.9265 164.346 25.0703V19.4369H165.697V17.1116H164.346V12.1111H165.697V9.71387H160.014V12.1111Z" fill="#605F5F"/>
<path d="M146.861 11.6071V9.38734H142.276C142.441 8.78325 142.578 8.36134 142.685 8.12642L140.353 7.59424C139.729 9.46405 138.69 11.19 137.226 12.7722L138.9 14.4886C139.797 13.6304 140.524 12.6715 141.095 11.6071H141.563C141.837 12.5852 142.129 13.5249 142.441 14.4358L144.773 13.7023C144.388 12.5085 144.188 11.8085 144.168 11.6071H146.866H146.861Z" fill="#605F5F"/>
<path d="M155.834 11.6071V9.38734H151.248C151.414 8.78325 151.55 8.36134 151.658 8.12642L149.326 7.59424C148.701 9.46405 147.662 11.19 146.886 11.9715L148.56 13.6879C148.77 13.6304 149.501 12.6715 150.067 11.6071H150.536C150.809 12.5852 151.102 13.5249 151.414 14.4358L153.746 13.7023C153.36 12.5085 153.16 11.8085 153.141 11.6071H155.839H155.834Z" fill="#605F5F"/>
<path d="M142.959 23.2719H152.613V17.8687H140.49V31.0485H142.959V30.0368H151.267V31.0485H153.76V24.4322H142.954V23.2719H142.959ZM142.959 19.9398H150.115V21.2535H142.959V19.9398ZM151.267 26.5082V28.0232H142.959V26.5082H151.267Z" fill="#605F5F"/>
<path d="M147.844 13.2329H145.346V14.7623H137.886V19.9403H140.326V16.8623H152.751V19.9403H155.191V14.7623H147.844V13.2329Z" fill="#605F5F"/>
<path d="M196.125 23.9292C196.637 24.9552 197.047 25.9141 197.359 26.8059C195.003 27.2278 192.744 27.549 190.583 27.7647C191.222 25.9285 191.788 24.121 192.285 22.3375H201.281V20.0649H184.553V22.3375H189.656C189.143 24.121 188.524 26.0004 187.792 27.9709C187.299 28.0188 186.377 28.0812 185.021 28.1483L185.158 30.4208C189.397 30.253 193.807 29.7496 198.378 28.9058C198.432 29.1935 198.569 29.601 198.788 30.1284C199.008 30.6606 199.193 31.0345 199.339 31.2503L201.476 30.2147C200.379 27.6209 199.31 25.1806 198.266 22.8936L196.125 23.9292Z" fill="#605F5F"/>
<path d="M192.915 10.0396C194.403 12.0197 200.213 17.1449 201.193 17.7155L202.237 15.4669C199.257 13.3622 196.608 10.965 194.285 8.27051H191.544C189.222 10.9793 186.573 13.3813 183.592 15.4669L184.636 17.7155C185.607 17.1497 191.432 12.0197 192.92 10.0396H192.915Z" fill="#605F5F"/>
<path d="M198.051 15.6919H187.797V18.0412H198.051V15.6919Z" fill="#605F5F"/>
</svg>
